<?xml version="1.0" encoding="utf-8"?>
<!-- Generator: Adobe Illustrator 23.0.1, SVG Export Plug-In . SVG Version: 6.00 Build 0)  -->
<svg version="1.1" id="_x2014_ÎÓÈ_x5F_1" xmlns="http://www.w3.org/2000/svg" xmlns:xlink="http://www.w3.org/1999/xlink"
	 x="0px" y="0px" viewBox="0 0 600 400" style="enable-background:new 0 0 600 400;" xml:space="preserve">
<style type="text/css">
	.st0{fill:#0F054C;}
	.st1{opacity:0.9;fill:url(#SVGID_1_);}
	.st2{opacity:0.8;fill:url(#SVGID_2_);}
	.st3{opacity:0.1;fill:#42E8E0;}
	.st4{opacity:0.67;}
	.st5{opacity:0.9;}
	.st6{fill:#080344;}
	.st7{fill:url(#SVGID_3_);}
	.st8{fill:url(#SVGID_4_);}
	.st9{fill:#24126A;}
	.st10{opacity:0.51;}
	.st11{fill:#453C9E;}
	.st12{fill:url(#SVGID_5_);}
	.st13{fill:url(#SVGID_6_);}
	.st14{opacity:0.51;fill:#453C9E;}
	.st15{opacity:0.3;}
	.st16{clip-path:url(#SVGID_9_);}
	.st17{fill:url(#SVGID_10_);}
	.st18{opacity:0.8;fill:url(#SVGID_11_);}
	.st19{fill:#FFFFFF;}
	.st20{opacity:0.15;}
	.st21{clip-path:url(#SVGID_13_);}
	.st22{fill:url(#SVGID_14_);}
	.st23{fill:url(#SVGID_15_);}
	.st24{opacity:0.4;clip-path:url(#SVGID_13_);fill:#24126A;}
	.st25{fill:#42E8E0;}
	.st26{fill:url(#SVGID_16_);}
	.st27{fill:#BCBEFF;}
	.st28{fill:#5351AF;}
	.st29{fill:url(#SVGID_17_);}
	.st30{fill:url(#SVGID_18_);}
	.st31{fill:url(#SVGID_19_);}
	.st32{fill:url(#SVGID_20_);}
	.st33{filter:url(#Adobe_OpacityMaskFilter);}
	.st34{filter:url(#Adobe_OpacityMaskFilter_1_);}
	.st35{mask:url(#SVGID_21_);fill:url(#SVGID_22_);}
	.st36{opacity:0.78;fill:url(#SVGID_23_);}
	.st37{fill:url(#SVGID_24_);}
	.st38{fill:url(#SVGID_25_);}
	.st39{fill:url(#SVGID_26_);}
	.st40{fill:#6767C1;}
	.st41{opacity:0.5;fill:#42E8E0;}
	.st42{fill:url(#SVGID_27_);}
	.st43{fill:url(#SVGID_28_);}
	.st44{fill:url(#SVGID_29_);}
	.st45{fill:url(#SVGID_30_);}
	.st46{fill:url(#SVGID_31_);}
	.st47{filter:url(#Adobe_OpacityMaskFilter_2_);}
	.st48{filter:url(#Adobe_OpacityMaskFilter_3_);}
	.st49{mask:url(#SVGID_32_);fill:url(#SVGID_33_);}
	.st50{opacity:0.78;fill:url(#SVGID_34_);}
	.st51{fill:url(#SVGID_35_);}
	.st52{fill:url(#SVGID_36_);}
	.st53{fill:url(#SVGID_37_);}
	.st54{fill:url(#SVGID_38_);}
	.st55{fill:url(#SVGID_39_);}
	.st56{fill:url(#SVGID_40_);}
	.st57{fill:url(#SVGID_41_);}
</style>
<rect x="0" transform="matrix(-1 -1.224647e-16 1.224647e-16 -1 600 400)" class="st0" width="600" height="400"/>
<radialGradient id="SVGID_1_" cx="238.6668" cy="215.3332" r="317.881" gradientTransform="matrix(-1 0 0 1 600 0)" gradientUnits="userSpaceOnUse">
	<stop  offset="0" style="stop-color:#5761D7"/>
	<stop  offset="3.110474e-02" style="stop-color:#525BCE"/>
	<stop  offset="0.1763" style="stop-color:#3E41A6"/>
	<stop  offset="0.3263" style="stop-color:#2D2B85"/>
	<stop  offset="0.4803" style="stop-color:#201A6C"/>
	<stop  offset="0.6397" style="stop-color:#160E5A"/>
	<stop  offset="0.8079" style="stop-color:#11074F"/>
	<stop  offset="1" style="stop-color:#0F054C"/>
</radialGradient>
<polygon class="st1" points="0,400 600,400 600,0 0,0 "/>
<radialGradient id="SVGID_2_" cx="-13.0002" cy="93.5939" r="439.3419" gradientTransform="matrix(-1 0 0 1 600 0)" gradientUnits="userSpaceOnUse">
	<stop  offset="0" style="stop-color:#FF2C9C"/>
	<stop  offset="3.006321e-02" style="stop-color:#F62F9F"/>
	<stop  offset="0.2023" style="stop-color:#C63EB0"/>
	<stop  offset="0.3737" style="stop-color:#9E4BBE"/>
	<stop  offset="0.5413" style="stop-color:#7F54C9"/>
	<stop  offset="0.7039" style="stop-color:#695BD1"/>
	<stop  offset="0.8594" style="stop-color:#5C60D5"/>
	<stop  offset="1" style="stop-color:#5761D7"/>
</radialGradient>
<path class="st2" d="M583.4,39.7c-1.2-0.7-3.3-0.7-4.5,0c-0.9,0.5-1.2,1.3-0.7,2l-69.5,40.1l0,50.7l-16.9,9.8l0,55.1l-58,33.5
	l-9-5.2l44.7-25.8l0-30.2l-0.2-0.1l-50.9-29.4v-10.2l28.8-16.6c1.2,0.5,3,0.5,4.1-0.2c1.2-0.7,1.2-1.9,0-2.6c-1.2-0.7-3.3-0.7-4.5,0
	c-1.1,0.6-1.2,1.6-0.3,2.4l-28.8,16.6v11.1l0.2,0.1l50.9,29.4l0,29.4L434.9,219l0-12.6l15.5-8.9c1.2,0.5,3,0.5,4.1-0.2
	c1.2-0.7,1.2-1.9,0-2.6c-1.2-0.7-3.3-0.7-4.5,0c-1.1,0.6-1.2,1.6-0.3,2.4l-15.5,8.9l0,13.4l-10.2,5.9l-12.1-7l0-21.9l22.8-13.2
	l0-15.2l-0.2-0.1l-48-27.7c0.9-0.7,0.8-1.7-0.3-2.4c-1.2-0.7-3.3-0.7-4.5,0c-1.2,0.7-1.2,1.9,0,2.6c1.1,0.6,2.9,0.7,4.1,0.2
	l48.2,27.8l0,14.3l-22.1,12.8l0-15.1l-0.2-0.1l-29.4-17c0.9-0.7,0.8-1.7-0.3-2.4c-1.2-0.7-3.3-0.7-4.5,0c-1.2,0.7-1.2,1.9,0,2.6
	c1.1,0.6,2.9,0.7,4.1,0.2l29.5,17.1l0,37l-8.5-4.9l-14,8.1l-12.7-7.3l0-17.8l-0.2-0.1l-33.5-19.3l0-16.8c0.7,0,1.4-0.2,1.9-0.5
	c1.2-0.7,1.2-1.9,0-2.6c-1.2-0.7-3.3-0.7-4.5,0c-1.2,0.7-1.2,1.9,0,2.6c0.5,0.3,1.2,0.5,1.9,0.5l0,17.2l0.2,0.1l33.5,19.3l0,17
	l-54.5-31.5l0-33.4l29.6-17.1l27.1,0l0.1,0l46.6-26.9c1.2,0.5,3,0.5,4.1-0.2c1.2-0.7,1.2-1.9,0-2.6c-1.2-0.7-3.3-0.7-4.5,0
	c-1.1,0.6-1.2,1.7-0.3,2.4l-46.1,26.6l-25.7,0l85.5-49.4c1.2,0.5,3,0.5,4.1-0.2c1.2-0.7,1.2-1.9,0-2.6c-1.2-0.7-3.3-0.7-4.5,0
	c-1.1,0.6-1.2,1.7-0.3,2.4L320,148.1l0,34.2l0.2,0.1l67.7,39.1l-13.6,7.9l-115.6-66.8l0-39.8l-0.2-0.1l-39.3-22.7
	c0.9-0.7,0.8-1.7-0.3-2.4c-1.2-0.7-3.3-0.7-4.5,0c-1.2,0.7-1.2,1.9,0,2.6c1.1,0.6,2.9,0.7,4.1,0.2l39.5,22.8l0,39.8l0.2,0.1
	l115.5,66.7l-13,7.5l-114.4-66l-68.2,0l-42.6-24.6l0-37.8c0.4-0.1,0.9-0.2,1.2-0.4c1.2-0.7,1.2-1.9,0-2.6c-1.2-0.7-3.3-0.7-4.5,0
	c-1.2,0.7-1.2,1.9,0,2.6c0.7,0.4,1.6,0.6,2.5,0.5l0,38.1l0.2,0.1l43,24.8l68.2,0l96.5,55.7l-19.4,0l-32.9-19h-25.4l-0.1,0L229.6,229
	c-1.2-0.5-3-0.5-4.1,0.2c-1.2,0.7-1.2,1.9,0,2.6c1.2,0.7,3.3,0.7,4.5,0c1.1-0.6,1.2-1.7,0.3-2.4l34.8-20.1h25l32.9,19l20.8,0
	l16.1,9.3l-34.6,20l-9.9-5.7v-14.9l-25-14.4c0.9-0.7,0.8-1.7-0.3-2.4c-1.2-0.7-3.3-0.7-4.5,0c-1.2,0.7-1.2,1.9,0,2.6
	c1.1,0.6,2.9,0.7,4.1,0.2l25,14.4v14.1L288,236.2h-12.6l-0.1,0l-15.1,8.7c-1.2-0.5-3-0.5-4.1,0.2c-1.2,0.7-1.2,1.9,0,2.6
	c1.2,0.7,3.3,0.7,4.5,0c1.1-0.6,1.2-1.7,0.3-2.4l14.6-8.4h12.3l36.7,21.2l-6.7,3.9l21.3,12.3l-10,5.8h-15.1l-10.8-6.2
	c0.9-0.7,0.7-1.7-0.4-2.3c-1.2-0.7-3.3-0.7-4.5,0c-1.2,0.7-1.2,1.9,0,2.6c1.1,0.7,2.9,0.7,4.1,0.2l11.3,6.5h14l-25.4,14.7
	l-59.8-34.5l-43,0l-0.1,0l-24.2,14c-1.2-0.5-3-0.5-4.1,0.2c-1.2,0.7-1.2,1.9,0,2.6c1.2,0.7,3.3,0.7,4.5,0c1.1-0.6,1.2-1.7,0.3-2.4
	l23.8-13.7l42.7,0l46.1,26.6h-19.7L249.6,277c0.9-0.7,0.8-1.7-0.3-2.4c-1.2-0.7-3.3-0.7-4.5,0c-1.2,0.7-1.2,1.9,0,2.6
	c1.1,0.6,2.9,0.7,4.1,0.2l19.8,11.4h21.2l11.9,6.9l-30.4,17.5l-97.1,0L99,269.8c0.9-0.7,0.8-1.7-0.3-2.4c-1.2-0.7-3.3-0.7-4.5,0
	c-1.2,0.7-1.2,1.9,0,2.6c1.1,0.6,2.9,0.7,4.1,0.2l75.9,43.8l96,0l-12,7l-71.9,0l-0.1,0l-35.4,20.5c-1.2-0.5-3-0.5-4.1,0.2
	c-1.2,0.7-1.2,1.9,0,2.6c1.2,0.7,3.3,0.7,4.5,0c1.1-0.6,1.2-1.7,0.3-2.4l35-20.2l71.9,0l0.1,0l81.4-47l9,5.2l-85.6,49.4h-62.6
	l-0.1,0L125,373l-104.8,0L0,361.3v0.8l20.1,11.6l105.1,0l0.1,0l47.5-27.4l0,16.2l-31.3,18.1c-1.2-0.5-3-0.5-4.1,0.2
	c-1.2,0.7-1.2,1.9,0,2.6c1.2,0.7,3.3,0.7,4.5,0c1.1-0.6,1.2-1.7,0.3-2.4l31.3-18.1l0-16.9h-0.2l27.6-15.9h62.6l0.1,0l86-49.7
	l10.3,5.9l-167,96.4l0,17.4h0.7l0-17l167-96.4l12.7,7.3l-86.1,49.7l0,8.9l-15.3,8.8v20.4l-29.6,17.1c-1.2-0.5-3-0.5-4.1,0.2
	c-0.5,0.3-0.7,0.6-0.9,0.9h6.2c-0.1-0.2-0.3-0.5-0.5-0.7l29.6-17.1v-20.4l14.6-8.4l0,32.7l8.6,5l-15.5,8.9h1.4l14.8-8.5l14.8,8.5
	h1.4l-24.8-14.3l0-41.6l86.1-49.7l11.6,6.7l-60.9,35.2c-1.2-0.5-3-0.5-4.1,0.2c-1.2,0.7-1.2,1.9,0,2.6c1.2,0.7,3.3,0.7,4.5,0
	c1.1-0.6,1.2-1.6,0.3-2.4l60.9-35.2l11.2,6.4l-72.9,42.1h-19.8c-0.1-0.3-0.4-0.7-0.9-0.9c-1.2-0.7-3.3-0.7-4.5,0s-1.2,1.9,0,2.6
	c1.2,0.7,3.3,0.7,4.5,0c0.5-0.3,0.8-0.6,0.9-0.9h20l0.1,0l73.3-42.3l4.5,2.6l3.5-2l17.5,10.1l0,14l-14.4,8.3v0h-22.6l-0.1,0
	l-24.8,14.3c-1.2-0.5-3-0.5-4.1,0.2c-1.2,0.7-1.2,1.9,0,2.6c1.2,0.7,3.3,0.7,4.5,0c1.1-0.6,1.2-1.7,0.3-2.4l24.4-14.1H408
	l-42.4,24.5c-1.2-0.6-3-0.5-4.2,0.1c-1.2,0.7-1.2,1.9,0,2.6c1.2,0.7,3.3,0.7,4.5,0c1.1-0.6,1.2-1.6,0.4-2.3l52.9-30.6l0,6.8
	l-31.5,18.2v12.8l-25.6,14.8c-1.2-0.5-3-0.5-4.1,0.2c-1.2,0.7-1.2,1.9,0,2.6c1.2,0.7,3.3,0.7,4.5,0c1.1-0.6,1.2-1.7,0.3-2.4
	l25.6-14.8v-12.8l31.5-18.2l0-7.6l4.4-2.5l0-14.9l-17.5-10.1l11.5-6.6l35.9,20.8l0,23.6l-24.4,14.1c-1.2-0.6-3-0.5-4.2,0.1
	c-1.2,0.7-1.2,1.9,0,2.6c1.2,0.7,3.3,0.7,4.5,0c1.1-0.6,1.2-1.6,0.4-2.3l23.7-13.7l0,19.1l-18.7,10.8l0,23.1h0.7l0-22.7l18-10.4
	l0,33.1h0.7l0-77.8L419,301.4l12.9-7.4l47,27.1l0,64.6l22.6,13l0,1.3h0.7v-1.7l-22.6-13l0-64.6l-47-27.1l9.6-5.5l63.4,36.6l0,55.1
	l35.1,20.2h1.4l-35.8-20.6l0-55.1l-63.4-36.6l15.5-8.9l105.5,60.9l0,27.4l36.2,20.9v-0.8l-35.4-20.5l0-27.4l-59.3-34.3h46.9
	l47.8,27.6v-0.8l-47.7-27.5H504l-44.9-25.9l18-10.4l38.6,22.3l62,0l22.3,12.9v-0.8l-4.9-2.8l4.9,0v-0.7l-6.1,0l-16-9.2l-62,0
	l-10.8-6.2h26.4l0.1,0l13.2-7.6l55.1,0l0.2,0.1v-0.8l-54,0l14.9-8.6c1.2,0.5,3,0.5,4.1-0.2c1.2-0.7,1.2-1.9,0-2.6
	c-1.2-0.7-3.3-0.7-4.5,0c-1.1,0.6-1.2,1.7-0.3,2.4l-28.9,16.7h-27.4l-26.1-15l9.6-5.6l-6.2-3.6h18l23.5,13.6
	c-0.9,0.7-0.8,1.7,0.3,2.4c1.2,0.7,3.3,0.7,4.5,0c1.2-0.7,1.2-1.9,0-2.6c-1.1-0.6-2.9-0.7-4.1-0.2l-24.1-13.9H480l-13.2-7.6l8.1-4.7
	h14.4l12.6-7.3h9.4l21.3,12.3c-1,0.7-0.9,1.7,0.3,2.4c1.2,0.7,3.3,0.7,4.5,0c1.2-0.7,1.2-1.9,0-2.6c-1.1-0.6-2.8-0.7-4-0.2
	l-21.8-12.6h-9.8l-12.6,7.3h-13l25.9-15h14l29.2,16.8l54.8,0v-0.7l-54.6,0L516.2,229h-14.4l-0.1,0l-35.7,20.6l-9.4-5.4l40.3-23.3
	l28.4,0l23.5,13.5l51.1,0v-0.7l-50.9,0l-22.2-12.8l73.1,0v-0.7l-103.1,0l-0.1,0L456,243.8l-10.6-6.1l56.2-32.5l98.4,0v-0.7l-71.7,0
	l71.7-41.4v-0.8l-73.1,42.2l-24.8,0l53.3-30.8v-6.8l25.5-14.7c1.2,0.5,3,0.5,4.1-0.2c1.2-0.7,1.2-1.9,0-2.6c-1.2-0.7-3.3-0.7-4.5,0
	c-1.1,0.6-1.2,1.6-0.3,2.4l-13.9,8l0-18.6l33.7-19.4V121l-34.4,19.8l0,19.4l-10.9,6.3v6.8l-53.7,31l0.2,0.3l-56.5,32.6l-10.3-5.9
	l58-33.5l0-55.1L600,80.6v-0.8l-90.6,52.3l0-49.8l69.4-40c0,0,0.1,0.1,0.1,0.1c1.2,0.7,3.3,0.7,4.5,0
	C584.6,41.6,584.6,40.4,583.4,39.7z M486,261.9L402.7,310l-83.3-48.1l83.3-48.1L486,261.9z"/>
<path class="st3" d="M600,125.9l-14.8,8.6l0,27.6l-131.6,76l-10-5.8l67.9-39.2l0-7l12-6.9l0-16.1l23.3-13.5c1,0.4,2.3,0.4,3.2-0.1
	c1-0.6,1-1.5,0-2c-1-0.6-2.6-0.6-3.5,0c-0.9,0.5-1,1.3-0.3,1.9l-23.3,13.5l0,16.1l-11.5,6.6l0-25.8l-0.1-0.1l-6.6-3.8l39.8-23
	l0-25.8l28.3-16.3c1,0.4,2.3,0.4,3.2-0.1c1-0.6,1-1.5,0-2c-1-0.6-2.6-0.6-3.5,0c-0.9,0.5-1,1.3-0.3,1.9l-28.3,16.3l0,25.8l-39.8,23
	L439.4,118l0-28.9c0.5,0,1.1-0.2,1.5-0.4c1-0.6,1-1.5,0-2c-1-0.6-2.6-0.6-3.5,0c-1,0.6-1,1.5,0,2c0.4,0.2,0.9,0.4,1.5,0.4l0,29.2
	l0.1,0.1l38.9,22.5l-28.4,0l-22.9-13.2c0.7-0.6,0.6-1.4-0.3-1.9c-1-0.6-2.6-0.6-3.5,0c-1,0.6-1,1.5,0,2c0.9,0.5,2.3,0.6,3.2,0.1
	l23.3,13.5l29.5,0v0l32,18.5l0,32.8L443,231.9l-9.1-5.3l48-27.7c1,0.4,2.3,0.4,3.2-0.1c1-0.6,1-1.5,0-2c-1-0.6-2.6-0.6-3.5,0
	c-0.9,0.5-1,1.3-0.3,1.9l-48,27.7l-8.8-5.1l57.5-33.2l15.6,0c0.1,0.3,0.3,0.5,0.7,0.7c1,0.6,2.6,0.6,3.5,0c1-0.6,1-1.5,0-2
	c-1-0.6-2.6-0.6-3.5,0c-0.4,0.2-0.6,0.5-0.7,0.7l-15.8,0l-0.1,0L424,221l-3.5-2l-0.1,0.1l-2.6,1.5l-13.8-7.9l0-11.1l11.4-6.6v0
	l17.8,0l19.7-11.3c1,0.4,2.3,0.4,3.2-0.1c1-0.6,1-1.5,0-2c-1-0.6-2.6-0.6-3.5,0c-0.9,0.5-1,1.3-0.3,1.9L433,194.4l-16.8,0l33.4-19.3
	c1,0.4,2.4,0.4,3.3-0.1c1-0.6,1-1.5,0-2c-1-0.6-2.6-0.6-3.5,0c-0.9,0.5-1,1.3-0.3,1.8l-41.7,24.1v-5.3l24.8-14.3v-10.1l20.2-11.7
	c1,0.4,2.3,0.4,3.2-0.1c1-0.6,1-1.5,0-2c-1-0.6-2.6-0.6-3.5,0c-0.9,0.5-1,1.3-0.3,1.9l-20.2,11.7v10.1l-24.8,14.3v6l-3.5,2l0,11.7
	l13.8,7.9l-9,5.2l-28.3-16.4l0-18.6L399,180c1,0.4,2.4,0.4,3.3-0.1c1-0.6,1-1.5,0-2c-1-0.6-2.6-0.6-3.5,0c-0.9,0.5-1,1.3-0.3,1.8
	l-18.7,10.8l0-15l14.8-8.5l0-28.3c0.5,0,1.1-0.2,1.5-0.4c1-0.6,1-1.5,0-2c-1-0.6-2.6-0.6-3.5,0c-1,0.6-1,1.5,0,2
	c0.4,0.2,0.9,0.4,1.5,0.4l0,27.9l-14.2,8.2l0-49.8h-0.6l0,85.1l28.3,16.4l-10.2,5.9l-37-21.4l0-50.9l-17.8-10.3l0-19.2l-15.7-9.1
	c0.7-0.6,0.6-1.4-0.3-1.9c-1-0.6-2.6-0.6-3.5,0c-1,0.6-1,1.5,0,2c0.9,0.5,2.3,0.6,3.2,0.1l15.7,9.1l0,19.2l17.8,10.3l0,50.9l37,21.4
	l-7.5,4.3l-50-28.9l0-43.4l-0.1-0.1L295,139c0.7-0.6,0.6-1.4-0.3-1.9c-1-0.6-2.6-0.6-3.5,0c-1,0.6-1,1.5,0,2
	c0.9,0.5,2.3,0.6,3.2,0.1l44.4,25.6l0,43.4l0.1,0.1l49.8,28.8l-12.2,7l-83.1-48v-21.6l-0.1-0.1l-69.6-40.2c0.7-0.6,0.6-1.4-0.3-1.9
	c-1-0.6-2.6-0.6-3.5,0c-1,0.6-1,1.5,0,2c0.9,0.5,2.3,0.6,3.2,0.1l69.7,40.3v21.6l0.1,0.1l46.6,26.9l-37,0l-42.8-24.7
	c0.7-0.6,0.6-1.4-0.3-1.9c-1-0.6-2.6-0.6-3.5,0c-1,0.6-1,1.5,0,2c0.9,0.5,2.3,0.6,3.2,0.1l43.2,25l38.1,0l35.4,20.4l-14.2,8.2
	l-30.4-17.6h-48.9l-55.6-32.1l-30.8,0l-12.6-7.3c0.7-0.6,0.6-1.4-0.3-1.9c-1-0.6-2.6-0.6-3.5,0c-1,0.6-1,1.5,0,2
	c0.9,0.5,2.3,0.6,3.2,0.1l13,7.5l30.8,0l42,24.2h-36.3L215,217.8c0.7-0.6,0.6-1.4-0.3-1.9c-1-0.6-2.6-0.6-3.5,0c-1,0.6-1,1.5,0,2
	c0.9,0.5,2.3,0.6,3.2,0.1l17.9,10.3h37.4l12.6,7.3h48.9l8.5,4.9H319l-0.1,0l-10.4,6l-43.4,0l-12.2-7.1h-24.6
	c-0.1-0.3-0.3-0.5-0.7-0.7c-1-0.6-2.6-0.6-3.5,0c-1,0.6-1,1.5,0,2c1,0.6,2.6,0.6,3.5,0c0.4-0.2,0.6-0.5,0.7-0.7h24.4l12.2,7.1
	l42.6,0l-11.7,6.8c-1-0.4-2.3-0.4-3.2,0.1c-1,0.6-1,1.5,0,2c1,0.6,2.6,0.6,3.5,0c0.9-0.5,1-1.3,0.3-1.9l22.8-13.2h21.6l20.5,11.9
	l-7.6,4.4l0.4,0.2l4.5,2.6l-14.2,0l-18.6-10.7c0.7-0.6,0.6-1.4-0.3-1.9c-1-0.6-2.6-0.6-3.5,0c-1,0.6-1,1.5,0,2
	c0.9,0.5,2.3,0.6,3.2,0.1l19,11l15.3,0l10.4,6l-6.4,3.7h-11.3l-0.1,0l-9.9,5.7h-7.4l-16.8-9.7c0.8-0.6,0.7-1.4-0.2-1.9
	c-1-0.6-2.6-0.6-3.5,0c-1,0.6-1,1.5,0,2c0.9,0.5,2.2,0.6,3.2,0.2l17.2,9.9h7.7l0.1,0l9.9-5.7h10.2l-20.4,11.8h-11l-23-13.3h-69.3
	l-43-24.8c0.7-0.6,0.7-1.4-0.2-1.9c-1-0.6-2.6-0.6-3.5,0c-1,0.6-1,1.5,0,2c0.9,0.5,2.2,0.6,3.2,0.2l43.4,25.1H308l23,13.3h11.3
	l0.1,0l28.1-16.2l7.4,4.3l-31.8,18.3h-22.4l-18.5-10.7l-47.5,0c-0.1-0.3-0.3-0.5-0.7-0.7c-1-0.6-2.6-0.6-3.5,0c-1,0.6-1,1.5,0,2
	c1,0.6,2.6,0.6,3.5,0c0.4-0.2,0.6-0.5,0.7-0.7l47.3,0l17.5,10.1h-66.9l-0.1,0l-63.7,36.8c-1-0.4-2.3-0.4-3.2,0.1c-1,0.6-1,1.5,0,2
	c1,0.6,2.6,0.6,3.5,0c0.9-0.5,1-1.3,0.3-1.9l63.4-36.6h90.4l0.1,0l32.1-18.5l8.4,4.8l-44.3,25.6h-78l-0.1,0l-68.3,39.4l-79.6,0
	L70,314.9c0.7-0.6,0.6-1.4-0.3-1.9c-1-0.6-2.6-0.6-3.5,0c-1,0.6-1,1.5,0,2c0.9,0.5,2.3,0.6,3.2,0.1l46.8,27l79.9,0l0.1,0l68.3-39.4
	h56.8L238,350.9l0,12.7l-33.3,19.2c-1-0.4-2.3-0.4-3.2,0.1c-1,0.6-1,1.5,0,2c1,0.6,2.6,0.6,3.5,0c0.9-0.5,1-1.3,0.3-1.9l33.3-19.2
	l0-12.7l84-48.5h19.5l-42,24.3v5.3L279.9,344c-1-0.4-2.3-0.4-3.2,0.1c-1,0.6-1,1.5,0,2c1,0.6,2.6,0.6,3.5,0c0.9-0.5,1-1.3,0.3-1.9
	l10.9-6.3v14.6l-63.2,36.5c-1-0.4-2.3-0.4-3.2,0.1c-1,0.6-1,1.5,0,2c1,0.6,2.6,0.6,3.5,0c0.9-0.5,1-1.3,0.3-1.9l63.2-36.5v-15.3
	l8.6-5v-5.3l42.4-24.5l-0.1-0.2l44.5-25.7l8.1,4.7L349.7,308l0,43.4L265.6,400h1.1l69.6-40.2l0,39.3l-1.6,0.9h1.1l1-0.6l0-39.9
	l13.3-7.7l0-43.4l45.7-26.4l7.1,4.1l-35.3,20.4l0,23.8l0.1,0.1l40.1,23.1l0,8.1l-22.7,13.1c-1-0.4-2.3-0.4-3.2,0.1c-1,0.6-1,1.5,0,2
	c1,0.6,2.6,0.6,3.5,0c0.9-0.5,1-1.3,0.3-1.9l22.7-13.1l0-8.7l-0.1-0.1l-40.1-23.1l0-23.2l26.6-15.4l0,9.9l-12.2,7.1
	c-1-0.4-2.3-0.4-3.2,0.1c-1,0.6-1,1.5,0,2c1,0.6,2.6,0.6,3.5,0c0.9-0.5,1-1.3,0.3-1.9l12.2-7.1l0-10.6l8.1-4.7l9.5,5.5l0,17.3
	l-18,10.4v11.9l0.1,0.1l37.8,21.8c-0.7,0.6-0.6,1.4,0.3,1.9c1,0.6,2.6,0.6,3.5,0c1-0.6,1-1.5,0-2c-0.9-0.5-2.3-0.6-3.2-0.1l-38-21.9
	v-11.3l17.4-10.1l0,11.9l23.3,13.4c-0.7,0.6-0.6,1.4,0.3,1.9c1,0.6,2.6,0.6,3.5,0c1-0.6,1-1.5,0-2c-0.9-0.5-2.3-0.6-3.2-0.1
	l-23.3-13.4l0-29.2l6.7,3.9l0.1-0.1l10.9-6.3l10,5.8l0,14l26.5,15.3l0,13.2c-0.5,0-1.1,0.2-1.5,0.4c-1,0.6-1,1.5,0,2
	c1,0.6,2.6,0.6,3.5,0c1-0.6,1-1.5,0-2c-0.4-0.2-0.9-0.4-1.5-0.4l0-13.5L442,309.1l0-13.4l43,24.8l0,26.3l-23.3,13.5h-21.4l-0.1,0
	l-36.7,21.2c-1-0.4-2.3-0.4-3.2,0.1c-1,0.6-1,1.5,0,2c1,0.6,2.6,0.6,3.5,0c0.9-0.5,1-1.3,0.3-1.9l36.4-21h20.3l-67.4,38.9
	c-1-0.4-2.3-0.4-3.2,0.1c0,0,0,0,0,0h4.1l91.4-52.8l0-26.9l-0.1-0.1l-53.4-30.8l10.7-6.2l91.1,52.6l0,31.4l31.1,18
	c-0.7,0.6-0.6,1.4,0.3,1.9c1,0.6,2.6,0.6,3.5,0c1-0.6,1-1.5,0-2c-0.9-0.5-2.3-0.6-3.2-0.1l-31.1-18l0-31.4l-0.1-0.1l-91-52.5
	l10.2-5.9l90.1,52h53.8l2.5,1.5v-0.6l-2.4-1.4h-53.8l-76.1-43.9h15.3l26,15l20,0l0.1,0l27.7-16c1,0.4,2.3,0.4,3.2-0.1
	c1-0.6,1-1.5,0-2c-1-0.6-2.6-0.6-3.5,0c-0.9,0.5-1,1.3-0.3,1.9l-27.4,15.8l-19.7,0l-26-15h-16.4l-12.7-7.3l27.3-15.8l7.8,4.5l0,11.8
	l19.7,11.4c-0.7,0.6-0.6,1.4,0.3,1.9c1,0.6,2.6,0.6,3.5,0c1-0.6,1-1.5,0-2c-0.9-0.5-2.3-0.6-3.2-0.1l-19.7-11.4l0-11.1l21,12.1h10
	l0.1,0l11.9-6.9c1,0.4,2.3,0.4,3.2-0.1c1-0.6,1-1.5,0-2c-1-0.6-2.6-0.6-3.5,0c-0.9,0.5-1,1.3-0.3,1.9l-11.5,6.7H511L482,260.5l5.3-3
	l-0.4-0.2l-16.4-9.4l7.9-4.5h11.9l8.5,4.9c-0.7,0.6-0.6,1.3,0.3,1.8c1,0.6,2.6,0.6,3.5,0c1-0.6,1-1.5,0-2c-0.9-0.5-2.3-0.6-3.3-0.1
	l-8.9-5.1h-11.1l20-11.6l47.2,27.2h33.9l0.1,0l19.1-11c0.1,0.1,0.3,0.1,0.4,0.1v-2.6c-0.3,0.1-0.5,0.2-0.7,0.3
	c-0.9,0.5-1,1.3-0.3,1.9l-18.8,10.8h-33.6l-36.4-21l15.6,0l15.2,8.8c-0.7,0.6-0.6,1.4,0.3,1.9c1,0.6,2.6,0.6,3.5,0c1-0.6,1-1.5,0-2
	c-0.9-0.5-2.3-0.6-3.2-0.1l-15.6-9l-16.7,0l-9.4-5.4l23.9-13.8l76.1,0v-0.6l-75.2,0l9.5-5.5l56.6,0l0.1,0l9-5.2v-0.6l-9.2,5.3
	l-56.6,0l-0.1,0l-64.2,37.1l-7.1-4.1l67.5-39l49.3,0l0.1,0l20.3-11.7V192l-20.5,11.9l-49.3,0l-0.1,0L462.2,243l-8.1-4.7l131.6-76
	l0-27.6l14.3-8.2V125.9z M486.2,257.5l-65.7,37.9l-65.7-37.9l65.7-37.9L486.2,257.5z"/>
<g>
	<g class="st4">
		<polygon class="st0" points="402.6,371.8 230.4,272.3 402.6,172.9 574.8,272.4 		"/>
	</g>
	<g class="st4">
		<polygon class="st0" points="402.6,356.4 257.1,272.3 402.6,188.3 548.1,272.4 		"/>
	</g>
	<g class="st5">
		<polygon class="st6" points="402.6,338.4 288.1,272.3 402.6,206.3 517.1,272.4 		"/>
	</g>
</g>
<g>
	<g>
		<g>
			<g>
				<g>
					<g>
						<g>
							
								<linearGradient id="SVGID_3_" gradientUnits="userSpaceOnUse" x1="172.1549" y1="178.859" x2="346.0833" y2="178.859" gradientTransform="matrix(-1 0 0 1 709.138 0)">
								<stop  offset="0" style="stop-color:#C0BFF6"/>
								<stop  offset="0.2938" style="stop-color:#C5C4F7"/>
								<stop  offset="0.6399" style="stop-color:#D3D2F9"/>
								<stop  offset="1" style="stop-color:#E9E9FD"/>
							</linearGradient>
							<path class="st7" d="M363.1,189.7l18.8-111.8l-1.5-0.6l2.3-1.3l0,0c0.4-0.3,1.1-0.3,1.8,0.1L535,163c1.2,0.7,2.2,2.5,2,3.8
								l-19,112.7c-0.1,0.6-0.4,1-0.8,1.1l0,0l-2.2,1.3l-0.4-2.1l0.1,0L365,193.5C363.8,192.8,362.9,191,363.1,189.7z"/>
							
								<linearGradient id="SVGID_4_" gradientUnits="userSpaceOnUse" x1="172.156" y1="223.4637" x2="202.0212" y2="223.4637" gradientTransform="matrix(-1 0 0 1 709.138 0)">
								<stop  offset="0" style="stop-color:#5761D7"/>
								<stop  offset="0.1779" style="stop-color:#5C66D9"/>
								<stop  offset="0.3876" style="stop-color:#6A73DF"/>
								<stop  offset="0.6134" style="stop-color:#8289E8"/>
								<stop  offset="0.849" style="stop-color:#A3A7F5"/>
								<stop  offset="1" style="stop-color:#BCBEFF"/>
							</linearGradient>
							<path class="st8" d="M534.2,166.1l2.5-1.1c0.3,0.6,0.4,1.3,0.3,1.9l-19,112.7c-0.1,0.6-0.4,1-0.8,1.1l0,0l-2.2,1.3l-0.4-2.1
								l0.1,0l-7.6-4.4L534.2,166.1z"/>
							<path class="st9" d="M362.7,194.9l150.6,86.9c1.2,0.7,2.2,0.3,2.4-0.9l19-112.7c0.2-1.3-0.7-3.1-2-3.8L382.1,77.5
								c-1.2-0.7-2.2-0.3-2.4,0.9l-19,112.7C360.5,192.3,361.4,194.1,362.7,194.9z"/>
							<g class="st10">
								<polygon class="st11" points="381.6,79.6 532.8,166.8 513.7,279.8 362.6,192.5 								"/>
							</g>
						</g>
						<g>
							
								<linearGradient id="SVGID_5_" gradientUnits="userSpaceOnUse" x1="195.4573" y1="272.1307" x2="441.101" y2="272.1307" gradientTransform="matrix(-1 0 0 1 709.138 0)">
								<stop  offset="0" style="stop-color:#5761D7"/>
								<stop  offset="0.1779" style="stop-color:#5C66D9"/>
								<stop  offset="0.3876" style="stop-color:#6A73DF"/>
								<stop  offset="0.6134" style="stop-color:#8289E8"/>
								<stop  offset="0.849" style="stop-color:#A3A7F5"/>
								<stop  offset="1" style="stop-color:#BCBEFF"/>
							</linearGradient>
							<path class="st12" d="M268,248.2l8.2,4.3l82.4-47.6c1.4-0.8,3.8-0.7,5.4,0.2l142.1,82c1.4-0.8,7.6-3.7,7.6-3.7l-3,4.9
								c0,0,0,0,0,0c-0.1,0.3-0.4,0.7-0.8,0.9L423,339.3c-1.4,0.8-3.8,0.7-5.4-0.2l-145.4-84c-0.7-0.4-1.1-0.8-1.2-1.3l0,0
								L268,248.2z"/>
							
								<linearGradient id="SVGID_6_" gradientUnits="userSpaceOnUse" x1="277.9944" y1="265.414" x2="523.7691" y2="265.414" gradientTransform="matrix(-1 0 0 1 709.138 0)">
								<stop  offset="0" style="stop-color:#C0BFF6"/>
								<stop  offset="0.2938" style="stop-color:#C5C4F7"/>
								<stop  offset="0.6399" style="stop-color:#D3D2F9"/>
								<stop  offset="1" style="stop-color:#E9E9FD"/>
							</linearGradient>
							<path class="st13" d="M269.3,249.5l149,86c1.6,0.9,4.1,1,5.5,0.2l88.9-51.3c1.4-0.8,1.2-2.2-0.4-3.2l-149-86
								c-1.6-0.9-4.1-1-5.5-0.2l-88.9,51.3C267.5,247.2,267.7,248.6,269.3,249.5z"/>
							<path class="st9" d="M269.3,249.5l149,86c1.6,0.9,4.1,1,5.5,0.2l88.9-51.3c1.4-0.8,1.2-2.2-0.4-3.2l-149-86
								c-1.6-0.9-4.1-1-5.5-0.2l-88.9,51.3C267.5,247.2,267.7,248.6,269.3,249.5z"/>
							<path class="st14" d="M269.3,249.5l149,86c1.6,0.9,4.1,1,5.5,0.2l88.9-51.3c1.4-0.8,1.2-2.2-0.4-3.2l-149-86
								c-1.6-0.9-4.1-1-5.5-0.2l-88.9,51.3C267.5,247.2,267.7,248.6,269.3,249.5z"/>
							<g class="st15">
								<defs>
									<path id="SVGID_7_" class="st15" d="M269.3,246.4l149,86c1.6,0.9,4.1,1,5.5,0.2l88.9-51.3c1.4-0.8,1.2-2.2-0.4-3.2l-149-86
										c-1.6-0.9-4.1-1-5.5-0.2l-88.9,51.3C267.5,244,267.7,245.4,269.3,246.4z"/>
								</defs>
								<radialGradient id="SVGID_8_" cx="403.9177" cy="268.1541" r="155.5936" gradientUnits="userSpaceOnUse">
									<stop  offset="0" style="stop-color:#42E8E0"/>
									<stop  offset="0.1055" style="stop-color:#37B6BF"/>
									<stop  offset="0.2197" style="stop-color:#2C87A1"/>
									<stop  offset="0.338" style="stop-color:#235F87"/>
									<stop  offset="0.4587" style="stop-color:#1C3F72"/>
									<stop  offset="0.5824" style="stop-color:#162561"/>
									<stop  offset="0.7105" style="stop-color:#121355"/>
									<stop  offset="0.8458" style="stop-color:#10084E"/>
									<stop  offset="1" style="stop-color:#0F054C"/>
								</radialGradient>
								<use xlink:href="#SVGID_7_"  style="overflow:visible;opacity:0.5;fill:url(#SVGID_8_);"/>
								<clipPath id="SVGID_9_">
									<use xlink:href="#SVGID_7_"  style="overflow:visible;opacity:0.5;"/>
								</clipPath>
								<g class="st16">
									<g>
										<g>
											<g>
												<g>
													<g>
														<g>
															
																<radialGradient id="SVGID_10_" cx="-2450.2942" cy="5384.7563" r="97.227" gradientTransform="matrix(-0.7781 0 0 -1.0592 -1538.7906 6053.4912)" gradientUnits="userSpaceOnUse">
																<stop  offset="0" style="stop-color:#C0BFF6"/>
																<stop  offset="1" style="stop-color:#393091"/>
															</radialGradient>
															<path class="st17" d="M349.7,341c0-33.1,19.7-59.9,44-59.9c24.3,0,44,26.8,44,59.9c0,33.1-19.7,43-44,43
																C369.4,384,349.7,374.1,349.7,341z"/>
														</g>
													</g>
												</g>
											</g>
										</g>
									</g>
								</g>
							</g>
							<linearGradient id="SVGID_11_" gradientUnits="userSpaceOnUse" x1="267.606" y1="262.2466" x2="514.0845" y2="262.2466">
								<stop  offset="0" style="stop-color:#42E8E0"/>
								<stop  offset="0.1055" style="stop-color:#37B6BF"/>
								<stop  offset="0.2197" style="stop-color:#2C87A1"/>
								<stop  offset="0.338" style="stop-color:#235F87"/>
								<stop  offset="0.4587" style="stop-color:#1C3F72"/>
								<stop  offset="0.5824" style="stop-color:#162561"/>
								<stop  offset="0.7105" style="stop-color:#121355"/>
								<stop  offset="0.8458" style="stop-color:#10084E"/>
								<stop  offset="1" style="stop-color:#0F054C"/>
							</linearGradient>
							<path class="st18" d="M421.4,333.6c-1.1,0-2.3-0.3-3.3-0.8l-149-86c-1-0.6-1.5-1.3-1.5-2.1c0-0.7,0.4-1.3,1.1-1.7l88.9-51.3
								c1.5-0.9,4.1-0.8,5.9,0.2l149,86c1,0.6,1.5,1.3,1.5,2.1c0,0.7-0.4,1.3-1.1,1.7L424,332.9
								C423.3,333.4,422.4,333.6,421.4,333.6z M360.2,191.6c-0.8,0-1.6,0.2-2.2,0.5l-88.9,51.3c-0.4,0.2-0.8,0.6-0.8,1.1
								c0,0.5,0.4,1.1,1.2,1.5l149,86c1.5,0.9,3.8,1,5.2,0.2l88.9-51.3c0.4-0.2,0.8-0.6,0.8-1.1s-0.4-1.1-1.2-1.5l-149-86
								C362.3,191.9,361.3,191.6,360.2,191.6z"/>
							<path class="st19" d="M269.3,248.9l149,86c1.6,0.9,4.1,1,5.5,0.2l88.9-51.3c0.5-0.3,0.8-0.7,0.9-1c0.2,0.6-0.1,1.3-0.9,1.7
								l-88.9,51.3c-1.4,0.8-3.9,0.7-5.5-0.2l-149-86c-1.1-0.6-1.5-1.4-1.3-2.1C268.1,247.9,268.6,248.4,269.3,248.9z"/>
						</g>
					</g>
					<g class="st20">
						<defs>
							<polygon id="SVGID_12_" class="st20" points="532.8,166.8 381.6,79.6 362.6,192.5 513.7,279.8 							"/>
						</defs>
						<clipPath id="SVGID_13_">
							<use xlink:href="#SVGID_12_"  style="overflow:visible;"/>
						</clipPath>
						<g class="st21">
							<g>
								
									<linearGradient id="SVGID_14_" gradientUnits="userSpaceOnUse" x1="100.9995" y1="218.0695" x2="346.6433" y2="218.0695" gradientTransform="matrix(-1 0 0 1 709.138 0)">
									<stop  offset="0" style="stop-color:#5761D7"/>
									<stop  offset="0.1779" style="stop-color:#5C66D9"/>
									<stop  offset="0.3876" style="stop-color:#6A73DF"/>
									<stop  offset="0.6134" style="stop-color:#8289E8"/>
									<stop  offset="0.849" style="stop-color:#A3A7F5"/>
									<stop  offset="1" style="stop-color:#BCBEFF"/>
								</linearGradient>
								<path class="st22" d="M362.5,194.1l8.2,4.3l82.4-47.6c1.4-0.8,3.8-0.7,5.4,0.2l142.1,82c1.4-0.8,7.6-3.7,7.6-3.7l-3,4.9
									c0,0,0,0,0,0c-0.1,0.3-0.4,0.7-0.8,0.9l-86.8,50.1c-1.4,0.8-3.8,0.7-5.4-0.2l-145.4-84c-0.7-0.4-1.1-0.8-1.2-1.3l0,0
									L362.5,194.1z"/>
								
									<linearGradient id="SVGID_15_" gradientUnits="userSpaceOnUse" x1="183.5366" y1="211.3528" x2="429.3113" y2="211.3528" gradientTransform="matrix(-1 0 0 1 709.138 0)">
									<stop  offset="0" style="stop-color:#C0BFF6"/>
									<stop  offset="0.2938" style="stop-color:#C5C4F7"/>
									<stop  offset="0.6399" style="stop-color:#D3D2F9"/>
									<stop  offset="1" style="stop-color:#E9E9FD"/>
								</linearGradient>
								<path class="st23" d="M363.8,195.5l149,86c1.6,0.9,4.1,1,5.5,0.2l88.9-51.3c1.4-0.8,1.2-2.2-0.4-3.2l-149-86
									c-1.6-0.9-4.1-1-5.5-0.2l-88.9,51.3C362,193.1,362.1,194.5,363.8,195.5z"/>
								<path class="st9" d="M363.8,195.5l149,86c1.6,0.9,4.1,1,5.5,0.2l88.9-51.3c1.4-0.8,1.2-2.2-0.4-3.2l-149-86
									c-1.6-0.9-4.1-1-5.5-0.2l-88.9,51.3C362,193.1,362.1,194.5,363.8,195.5z"/>
								<path class="st14" d="M363.8,195.5l149,86c1.6,0.9,4.1,1,5.5,0.2l88.9-51.3c1.4-0.8,1.2-2.2-0.4-3.2l-149-86
									c-1.6-0.9-4.1-1-5.5-0.2l-88.9,51.3C362,193.1,362.1,194.5,363.8,195.5z"/>
								<path class="st19" d="M606.8,227.2l-149-86c-1-0.6-2.4-0.9-3.7-0.7c0.9,0.1,1.8,0.3,2.6,0.7l149,86c1.6,0.9,1.8,2.4,0.4,3.2
									l-88.9,51.3c-0.5,0.3-1.1,0.5-1.8,0.5c1.1,0.1,2.2-0.1,2.9-0.5l88.9-51.3C608.6,229.6,608.5,228.2,606.8,227.2z"/>
							</g>
						</g>
						<path class="st24" d="M473.6,244.2l-42.8-24.7c-4.3-2.5-4.3-6.6,0-9.1l42.8-24.7c4.3-2.5,11.4-2.5,15.7,0l42.8,24.7
							c4.3,2.5,4.3,6.6,0,9.1l-42.8,24.7C485,246.7,477.9,246.7,473.6,244.2z"/>
						<g class="st21">
							<path class="st25" d="M496.2,247.5c-10.7,0-20.7-2.4-28.2-6.7l0,0c-7.7-4.4-11.9-10.3-11.9-16.7c0-6.3,4.2-12.3,11.9-16.7
								c15.6-9,40.9-9,56.5,0c7.7,4.4,11.9,10.4,11.9,16.7c0,6.3-4.2,12.3-11.9,16.7C516.9,245.1,506.9,247.5,496.2,247.5z
								 M496.2,201.1c-10.1,0-20.3,2.2-28,6.7c-7.5,4.3-11.7,10.1-11.7,16.3s4.1,11.9,11.7,16.3l0,0c7.5,4.3,17.4,6.7,28,6.7
								c10.6,0,20.5-2.4,28-6.7c7.5-4.3,11.7-10.1,11.7-16.3c0-6.2-4.1-11.9-11.7-16.3C516.5,203.3,506.3,201.1,496.2,201.1z"/>
							<g>
								<g>
									
										<linearGradient id="SVGID_16_" gradientUnits="userSpaceOnUse" x1="-217.2257" y1="211.131" x2="-144.5997" y2="211.131" gradientTransform="matrix(-1 0 0 1 315.2906 0)">
										<stop  offset="0" style="stop-color:#5761D7"/>
										<stop  offset="0.1779" style="stop-color:#5C66D9"/>
										<stop  offset="0.3876" style="stop-color:#6A73DF"/>
										<stop  offset="0.6134" style="stop-color:#8289E8"/>
										<stop  offset="0.849" style="stop-color:#A3A7F5"/>
										<stop  offset="1" style="stop-color:#BCBEFF"/>
									</linearGradient>
									<path class="st26" d="M459.9,211.1v-8.1h2.8c1.8-2.5,4.4-4.8,7.9-6.8c14.2-8.2,37.2-8.2,51.4,0c3.5,2,6.1,4.3,7.9,6.8h2.8
										v8.1l0,0c0,5.4-3.5,10.7-10.6,14.8c-14.2,8.2-37.2,8.2-51.4,0C463.4,221.9,459.9,216.5,459.9,211.1z"/>
									<ellipse class="st27" cx="496.2" cy="203.1" rx="36.3" ry="21"/>
								</g>
								<g>
									<path class="st9" d="M462.7,202.8v-11h2.6c1.6-2.3,4-4.4,7.3-6.3c13.1-7.6,34.3-7.6,47.4,0c3.2,1.8,5.6,4,7.3,6.3h2.6v11
										l0,0c0,5-3.3,9.9-9.8,13.7c-13.1,7.6-34.3,7.6-47.4,0C465.9,212.7,462.7,207.7,462.7,202.8z"/>
									<g class="st10">
										<path class="st11" d="M462.7,200.1v-11h2.6c1.6-2.3,4-4.4,7.3-6.3c13.1-7.6,34.3-7.6,47.4,0c3.2,1.8,5.6,4,7.3,6.3h2.6v11
											l0,0c0,5-3.3,9.9-9.8,13.7c-13.1,7.6-34.3,7.6-47.4,0C465.9,210,462.7,205.1,462.7,200.1z"/>
									</g>
									<ellipse class="st27" cx="496.2" cy="191.8" rx="33.5" ry="19.4"/>
								</g>
								<g>
									<g class="st10">
										<path class="st28" d="M473.1,206c5.8,7.3,13.4,11.3,19.8,13.4c-7.5-0.4-14.7-2.3-20.4-5.6c-6.5-3.8-9.8-8.7-9.8-13.7v-3.3
											C466.1,198.7,469.7,201.6,473.1,206z"/>
									</g>
									
										<linearGradient id="SVGID_17_" gradientUnits="userSpaceOnUse" x1="-217.2257" y1="191.5937" x2="-144.5997" y2="191.5937" gradientTransform="matrix(-1 0 0 1 315.2906 0)">
										<stop  offset="0" style="stop-color:#5761D7"/>
										<stop  offset="0.1779" style="stop-color:#5C66D9"/>
										<stop  offset="0.3876" style="stop-color:#6A73DF"/>
										<stop  offset="0.6134" style="stop-color:#8289E8"/>
										<stop  offset="0.849" style="stop-color:#A3A7F5"/>
										<stop  offset="1" style="stop-color:#BCBEFF"/>
									</linearGradient>
									<path class="st29" d="M459.9,191.6v-8.1h2.8c1.8-2.5,4.4-4.8,7.9-6.8c14.2-8.2,37.2-8.2,51.4,0c3.5,2,6.1,4.3,7.9,6.8h2.8
										v8.1l0,0c0,5.4-3.5,10.7-10.6,14.8c-14.2,8.2-37.2,8.2-51.4,0C463.4,202.3,459.9,197,459.9,191.6z"/>
									<ellipse class="st27" cx="496.2" cy="183.5" rx="36.3" ry="21"/>
								</g>
								<g>
									<path class="st9" d="M462.7,182.8v-11h2.6c1.6-2.3,4-4.4,7.3-6.3c13.1-7.6,34.3-7.6,47.4,0c3.2,1.8,5.6,4,7.3,6.3h2.6v11
										l0,0c0,5-3.3,9.9-9.8,13.7c-13.1,7.6-34.3,7.6-47.4,0C465.9,192.7,462.7,187.8,462.7,182.8z"/>
									<g class="st10">
										<path class="st11" d="M462.7,180.3v-11h2.6c1.6-2.3,4-4.4,7.3-6.3c13.1-7.6,34.3-7.6,47.4,0c3.2,1.8,5.6,4,7.3,6.3h2.6v11
											l0,0c0,5-3.3,9.9-9.8,13.7c-13.1,7.6-34.3,7.6-47.4,0C465.9,190.2,462.7,185.3,462.7,180.3z"/>
									</g>
									<ellipse class="st27" cx="496.2" cy="171.8" rx="33.5" ry="19.4"/>
								</g>
								<g>
									<g class="st10">
										<path class="st28" d="M473.1,185c7.2,9.1,17.2,13,24.2,14.6c-9,0.2-18-1.7-24.8-5.6c-6.5-3.8-9.8-8.7-9.8-13.7v-4.5
											C466.1,177.8,469.7,180.7,473.1,185z"/>
									</g>
									
										<linearGradient id="SVGID_18_" gradientUnits="userSpaceOnUse" x1="-217.2257" y1="171.6507" x2="-144.5997" y2="171.6507" gradientTransform="matrix(-1 0 0 1 315.2906 0)">
										<stop  offset="0" style="stop-color:#5761D7"/>
										<stop  offset="0.1779" style="stop-color:#5C66D9"/>
										<stop  offset="0.3876" style="stop-color:#6A73DF"/>
										<stop  offset="0.6134" style="stop-color:#8289E8"/>
										<stop  offset="0.849" style="stop-color:#A3A7F5"/>
										<stop  offset="1" style="stop-color:#BCBEFF"/>
									</linearGradient>
									<path class="st30" d="M459.9,171.7v-8.1h2.8c1.8-2.5,4.4-4.8,7.9-6.8c14.2-8.2,37.2-8.2,51.4,0c3.5,2,6.1,4.3,7.9,6.8h2.8
										v8.1l0,0c0,5.4-3.5,10.7-10.6,14.8c-14.2,8.2-37.2,8.2-51.4,0C463.4,182.4,459.9,177,459.9,171.7z"/>
									<ellipse class="st27" cx="496.2" cy="163.6" rx="36.3" ry="21"/>
								</g>
								<g>
									<path class="st9" d="M462.7,162.9v-11h2.6c1.6-2.3,4-4.4,7.3-6.3c13.1-7.6,34.3-7.6,47.4,0c3.2,1.8,5.6,4,7.3,6.3h2.6v11
										l0,0c0,5-3.3,9.9-9.8,13.7c-13.1,7.6-34.3,7.6-47.4,0C465.9,172.8,462.7,167.8,462.7,162.9z"/>
									<g class="st10">
										<path class="st11" d="M462.7,159.8v-11h2.6c1.6-2.3,4-4.4,7.3-6.3c13.1-7.6,34.3-7.6,47.4,0c3.2,1.8,5.6,4,7.3,6.3h2.6v11
											l0,0c0,5-3.3,9.9-9.8,13.7c-13.1,7.6-34.3,7.6-47.4,0C465.9,169.7,462.7,164.8,462.7,159.8z"/>
									</g>
									<ellipse class="st27" cx="496.2" cy="151.9" rx="33.5" ry="19.4"/>
								</g>
								<g>
									
										<linearGradient id="SVGID_19_" gradientUnits="userSpaceOnUse" x1="-217.2257" y1="151.7078" x2="-144.5997" y2="151.7078" gradientTransform="matrix(-1 0 0 1 315.2906 0)">
										<stop  offset="0" style="stop-color:#5761D7"/>
										<stop  offset="0.1779" style="stop-color:#5C66D9"/>
										<stop  offset="0.3876" style="stop-color:#6A73DF"/>
										<stop  offset="0.6134" style="stop-color:#8289E8"/>
										<stop  offset="0.849" style="stop-color:#A3A7F5"/>
										<stop  offset="1" style="stop-color:#BCBEFF"/>
									</linearGradient>
									<path class="st31" d="M459.9,151.7v-8.1h2.8c1.8-2.5,4.4-4.8,7.9-6.8c14.2-8.2,37.2-8.2,51.4,0c3.5,2,6.1,4.3,7.9,6.8h2.8
										v8.1l0,0c0,5.4-3.5,10.7-10.6,14.8c-14.2,8.2-37.2,8.2-51.4,0C463.4,162.4,459.9,157.1,459.9,151.7z"/>
									<ellipse class="st27" cx="496.2" cy="143.7" rx="36.3" ry="21"/>
									<ellipse class="st27" cx="496.2" cy="143.7" rx="36.3" ry="21"/>
								</g>
								<g>
									<g class="st10">
										<path class="st28" d="M473.1,164.1c7.9,10,19.2,13.7,26.2,15c-9.6,0.5-19.5-1.3-26.8-5.6c-6.5-3.8-9.8-8.7-9.8-13.7v-4.9
											C466.1,156.8,469.7,159.7,473.1,164.1z"/>
									</g>
									
										<linearGradient id="SVGID_20_" gradientUnits="userSpaceOnUse" x1="-217.2257" y1="151.7078" x2="-144.5997" y2="151.7078" gradientTransform="matrix(-1 0 0 1 315.2906 0)">
										<stop  offset="0" style="stop-color:#5761D7"/>
										<stop  offset="0.1779" style="stop-color:#5C66D9"/>
										<stop  offset="0.3876" style="stop-color:#6A73DF"/>
										<stop  offset="0.6134" style="stop-color:#8289E8"/>
										<stop  offset="0.849" style="stop-color:#A3A7F5"/>
										<stop  offset="1" style="stop-color:#BCBEFF"/>
									</linearGradient>
									<path class="st32" d="M459.9,151.7v-8.1h2.8c1.8-2.5,4.4-4.8,7.9-6.8c14.2-8.2,37.2-8.2,51.4,0c3.5,2,6.1,4.3,7.9,6.8h2.8
										v8.1l0,0c0,5.4-3.5,10.7-10.6,14.8c-14.2,8.2-37.2,8.2-51.4,0C463.4,162.4,459.9,157.1,459.9,151.7z"/>
									<ellipse class="st27" cx="496.2" cy="143.7" rx="36.3" ry="21"/>
									<ellipse class="st27" cx="496.2" cy="143.7" rx="36.3" ry="21"/>
									<path class="st19" d="M470.3,157.8c14.2,8.2,37.2,8.2,51.4,0c8.7-5,12-11.9,10.1-18.4c2.4,6.7-0.9,13.9-9.9,19.1
										c-14.2,8.2-37.2,8.2-51.4,0c-5.5-3.2-8.9-7.1-10.1-11.2C461.8,151.1,465.1,154.8,470.3,157.8z"/>
									<path class="st19" d="M470.3,177.8c14.2,8.2,37.2,8.2,51.4,0c8.7-5,12-11.9,10.1-18.4c2.4,6.7-0.9,13.9-9.9,19.1
										c-14.2,8.2-37.2,8.2-51.4,0c-5.5-3.2-8.9-7.1-10.1-11.2C461.8,171.1,465.1,174.8,470.3,177.8z"/>
									<path class="st19" d="M470.3,197.7c14.2,8.2,37.2,8.2,51.4,0c8.7-5,12-11.9,10.1-18.4c2.4,6.7-0.9,13.9-9.9,19.1
										c-14.2,8.2-37.2,8.2-51.4,0c-5.5-3.2-8.9-7.1-10.1-11.2C461.8,191,465.1,194.7,470.3,197.7z"/>
									<path class="st19" d="M470.3,217.7c14.2,8.2,37.2,8.2,51.4,0c8.7-5,12-11.9,10.1-18.4c2.4,6.7-0.9,13.9-9.9,19.1
										c-14.2,8.2-37.2,8.2-51.4,0c-5.5-3.2-8.9-7.1-10.1-11.2C461.8,211,465.1,214.7,470.3,217.7z"/>
								</g>
								<defs>
									<filter id="Adobe_OpacityMaskFilter" filterUnits="userSpaceOnUse" x="496.2" y="133" width="36.3" height="19.4">
										<feFlood  style="flood-color:white;flood-opacity:1" result="back"/>
										<feBlend  in="SourceGraphic" in2="back" mode="normal"/>
									</filter>
								</defs>
								<mask maskUnits="userSpaceOnUse" x="496.2" y="133" width="36.3" height="19.4" id="SVGID_21_">
									<g class="st33">
										<defs>
											<filter id="Adobe_OpacityMaskFilter_1_" filterUnits="userSpaceOnUse" x="496.2" y="133" width="36.3" height="19.4">
												<feFlood  style="flood-color:white;flood-opacity:1" result="back"/>
												<feBlend  in="SourceGraphic" in2="back" mode="normal"/>
											</filter>
										</defs>
										<mask maskUnits="userSpaceOnUse" x="496.2" y="133" width="36.3" height="19.4" id="SVGID_21_">
											<g class="st34">
											</g>
										</mask>
										
											<linearGradient id="SVGID_22_" gradientUnits="userSpaceOnUse" x1="-217.2248" y1="142.7328" x2="-180.9127" y2="142.7328" gradientTransform="matrix(-1 0 0 1 315.2906 0)">
											<stop  offset="0" style="stop-color:#000000"/>
											<stop  offset="4.693538e-02" style="stop-color:#2F2F2F"/>
											<stop  offset="9.814870e-02" style="stop-color:#5A5A5A"/>
											<stop  offset="0.155" style="stop-color:#828282"/>
											<stop  offset="0.2161" style="stop-color:#A4A4A4"/>
											<stop  offset="0.2828" style="stop-color:#C0C0C0"/>
											<stop  offset="0.3571" style="stop-color:#D7D7D7"/>
											<stop  offset="0.442" style="stop-color:#E9E9E9"/>
											<stop  offset="0.5443" style="stop-color:#F6F6F6"/>
											<stop  offset="0.6813" style="stop-color:#FDFDFD"/>
											<stop  offset="1" style="stop-color:#FFFFFF"/>
										</linearGradient>
										<path class="st35" d="M529.2,152.5h-33V133h31.3C533.6,139,534.1,146.3,529.2,152.5z"/>
									</g>
								</mask>
								
									<linearGradient id="SVGID_23_" gradientUnits="userSpaceOnUse" x1="-217.2248" y1="142.7328" x2="-180.9127" y2="142.7328" gradientTransform="matrix(-1 0 0 1 315.2906 0)">
									<stop  offset="0" style="stop-color:#E9E9FD"/>
									<stop  offset="3.739363e-02" style="stop-color:#D3D5F7"/>
									<stop  offset="0.1056" style="stop-color:#B2B6EF"/>
									<stop  offset="0.1817" style="stop-color:#969BE7"/>
									<stop  offset="0.2663" style="stop-color:#7F86E1"/>
									<stop  offset="0.3632" style="stop-color:#6D75DD"/>
									<stop  offset="0.4798" style="stop-color:#606AD9"/>
									<stop  offset="0.6363" style="stop-color:#5963D8"/>
									<stop  offset="1" style="stop-color:#5761D7"/>
								</linearGradient>
								<path class="st36" d="M529.2,152.5h-33V133h31.3C533.6,139,534.1,146.3,529.2,152.5z"/>
								<g>
									
										<linearGradient id="SVGID_24_" gradientUnits="userSpaceOnUse" x1="-199.5567" y1="141.691" x2="-162.2687" y2="141.691" gradientTransform="matrix(-1 0 0 1 315.2906 0)">
										<stop  offset="0" style="stop-color:#5761D7"/>
										<stop  offset="0.1779" style="stop-color:#5C66D9"/>
										<stop  offset="0.3876" style="stop-color:#6A73DF"/>
										<stop  offset="0.6134" style="stop-color:#8289E8"/>
										<stop  offset="0.849" style="stop-color:#A3A7F5"/>
										<stop  offset="1" style="stop-color:#BCBEFF"/>
									</linearGradient>
									<path class="st37" d="M477.6,141.7v-4.1h1.4c0.9-1.3,2.3-2.4,4-3.5c7.3-4.2,19.1-4.2,26.4,0c1.8,1,3.1,2.2,4,3.5h1.4v4.1
										l0,0c0,2.8-1.8,5.5-5.5,7.6c-7.3,4.2-19.1,4.2-26.4,0C479.4,147.2,477.6,144.4,477.6,141.7z"/>
									<ellipse class="st27" cx="496.2" cy="137.6" rx="18.6" ry="10.8"/>
									
										<linearGradient id="SVGID_25_" gradientUnits="userSpaceOnUse" x1="-199.5567" y1="137.5545" x2="-162.2686" y2="137.5545" gradientTransform="matrix(-1 0 0 1 315.2906 0)">
										<stop  offset="0" style="stop-color:#C0BFF6"/>
										<stop  offset="0.2938" style="stop-color:#C5C4F7"/>
										<stop  offset="0.6399" style="stop-color:#D3D2F9"/>
										<stop  offset="1" style="stop-color:#E9E9FD"/>
									</linearGradient>
									<ellipse class="st38" cx="496.2" cy="137.6" rx="18.6" ry="10.8"/>
									<path class="st9" d="M487.3,142.7c4.9,2.8,12.9,2.8,17.8,0c1.5-0.9,2.6-1.9,3.2-3.1c1.3-2.5-1.9-4.3-5.3-6.2
										c-4.9-2.8-8.4-3.5-13.3-0.7c-3.4,1.9-6.8,4.4-5.5,6.9C484.7,140.7,485.8,141.8,487.3,142.7z"/>
									
										<linearGradient id="SVGID_26_" gradientUnits="userSpaceOnUse" x1="-193.4657" y1="134.9648" x2="-168.3596" y2="134.9648" gradientTransform="matrix(-1 0 0 1 315.2906 0)">
										<stop  offset="0" style="stop-color:#BCBEFF"/>
										<stop  offset="0.151" style="stop-color:#A3A7F5"/>
										<stop  offset="0.3866" style="stop-color:#8289E8"/>
										<stop  offset="0.6124" style="stop-color:#6A73DF"/>
										<stop  offset="0.8221" style="stop-color:#5C66D9"/>
										<stop  offset="1" style="stop-color:#5761D7"/>
									</linearGradient>
									<path class="st39" d="M505.1,136.6c-4.9-2.8-12.9-2.8-17.8,0c-1.5,0.9-2.6,1.9-3.2,3.1c-1.3-2.5-0.2-5.2,3.2-7.2
										c4.9-2.8,12.9-2.8,17.8,0c3.4,1.9,4.4,4.7,3.2,7.2C507.7,138.5,506.6,137.4,505.1,136.6z"/>
								</g>
							</g>
							<g>
								<g class="st10">
									<path class="st40" d="M475.8,174.2c2.4,1,4.3,0.7,4.1-0.6c-0.2-1.3-2.3-3.1-4.8-4.1c-2.4-1-4.3-0.7-4.1,0.6
										C471.2,171.5,473.3,173.3,475.8,174.2z"/>
								</g>
								<g class="st10">
									<path class="st40" d="M475.8,194.5c2.4,1,4.3,0.7,4.1-0.6c-0.2-1.3-2.3-3.1-4.8-4.1c-2.4-1-4.3-0.7-4.1,0.6
										C471.2,191.7,473.3,193.5,475.8,194.5z"/>
								</g>
								<g class="st10">
									<path class="st40" d="M475.6,214.8c2.4,1,4.3,0.7,4.1-0.6c-0.2-1.3-2.3-3.1-4.8-4.1c-2.4-1-4.3-0.7-4.1,0.6
										C471,212.1,473.2,213.9,475.6,214.8z"/>
								</g>
								<g class="st10">
									<path class="st40" d="M468.8,169.2c0.6,0.4,1.3,0.4,1.6,0c0.3-0.4,0.1-1.1-0.5-1.5c-0.6-0.4-1.3-0.4-1.6,0
										C468,168.1,468.2,168.8,468.8,169.2z"/>
								</g>
								<g class="st10">
									<path class="st40" d="M468.8,189.5c0.6,0.4,1.3,0.4,1.6,0c0.3-0.4,0.1-1.1-0.5-1.5c-0.6-0.4-1.3-0.4-1.6,0
										C468,188.4,468.2,189.1,468.8,189.5z"/>
								</g>
								<g class="st10">
									<path class="st40" d="M468.8,209.7c0.6,0.4,1.3,0.4,1.6,0c0.3-0.4,0.1-1.1-0.5-1.5c-0.6-0.4-1.3-0.4-1.6,0
										C468,208.6,468.2,209.3,468.8,209.7z"/>
								</g>
							</g>
						</g>
					</g>
				</g>
			</g>
		</g>
	</g>
	<g>
		<g>
			<polygon class="st41" points="396.4,112.3 387.9,107.3 388.2,105.5 396.7,110.4 			"/>
			<polygon class="st41" points="400.8,114.8 397.7,113 398,111.1 401.1,112.9 			"/>
			<polygon class="st41" points="404.2,116.7 402.1,115.5 402.4,113.7 404.5,114.9 			"/>
			<polygon class="st41" points="391.8,114.3 387.2,111.6 387.5,109.7 392.1,112.4 			"/>
			<polygon class="st41" points="398.8,118.3 393.1,115 393.4,113.2 399.1,116.5 			"/>
			<polygon class="st41" points="402.2,120.3 400.1,119.1 400.4,117.2 402.5,118.4 			"/>
			<polygon class="st41" points="405.4,122.2 403.3,120.9 403.7,119.1 405.7,120.3 			"/>
			<polygon class="st25" points="389.8,117.8 386.5,115.9 386.8,114 390.1,116 			"/>
			<polygon class="st25" points="392.3,119.2 391.1,118.6 391.4,116.7 392.6,117.4 			"/>
			<polygon class="st41" points="395.7,121.2 393.6,120 393.9,118.1 396,119.3 			"/>
			<polygon class="st41" points="398.2,127.3 385.8,120.2 386.1,118.3 398.5,125.5 			"/>
			<polygon class="st41" points="402.5,129.9 399.5,128.1 399.8,126.2 402.9,128 			"/>
			<polygon class="st41" points="388.4,126.4 385.1,124.4 385.4,122.6 388.7,124.5 			"/>
			<polygon class="st41" points="396.3,130.9 389.7,127.1 390,125.3 396.6,129.1 			"/>
			<polygon class="st41" points="399.7,132.9 397.6,131.7 397.9,129.8 400,131 			"/>
			<polygon class="st41" points="391.2,132.7 384.4,128.7 384.7,126.9 391.5,130.8 			"/>
			<polygon class="st25" points="397.5,136.3 392.5,133.5 392.8,131.6 397.8,134.5 			"/>
			<polygon class="st41" points="402.2,139 398.8,137.1 399.1,135.2 402.5,137.1 			"/>
			<polygon class="st41" points="386,134.3 383.7,133 384,131.1 386.3,132.5 			"/>
			<polygon class="st41" points="390.4,136.9 387.3,135.1 387.6,133.2 390.7,135 			"/>
			<polygon class="st41" points="396.6,140.5 391.7,137.6 392,135.8 396.9,138.6 			"/>
			<polygon class="st41" points="390.1,141.4 382.9,137.3 383.3,135.4 390.4,139.5 			"/>
			<polygon class="st41" points="398,146 391.4,142.1 391.7,140.3 398.3,144.1 			"/>
			<polygon class="st25" points="401.4,148 399.3,146.8 399.6,144.9 401.7,146.1 			"/>
			<polygon class="st41" points="404.7,149.8 402.6,148.6 402.9,146.8 405,148 			"/>
			<polygon class="st41" points="386.5,144 382.2,141.6 382.6,139.7 386.8,142.2 			"/>
			<polygon class="st25" points="410,120.1 415.9,123.5 416.2,121.6 410.3,118.2 			"/>
			<polygon class="st41" points="410.5,125.1 415.2,127.8 415.5,125.9 410.8,123.2 			"/>
			<polygon class="st41" points="411.1,130.1 414.5,132.1 414.8,130.2 411.4,128.2 			"/>
			<polygon class="st41" points="408.9,133.5 413.8,136.3 414.1,134.5 409.2,131.6 			"/>
			<polygon class="st41" points="409.7,138.7 413.1,140.6 413.4,138.8 410,136.8 			"/>
			<polygon class="st41" points="408.1,142.4 412.4,144.9 412.7,143 408.4,140.6 			"/>
			<polygon class="st41" points="409.3,147.8 411.7,149.2 412,147.3 409.6,146 			"/>
			<polygon class="st41" points="406.5,150.9 411,153.5 411.3,151.6 406.8,149 			"/>
			<polygon class="st41" points="406,155.3 410.3,157.7 410.6,155.9 406.3,153.4 			"/>
			<polygon class="st41" points="389.6,145.8 387.8,144.8 388.1,142.9 389.9,144 			"/>
			<polygon class="st41" points="395,148.9 390.9,146.6 391.2,144.7 395.3,147.1 			"/>
			<polygon class="st41" points="429.5,131.3 421,126.4 421.3,124.5 429.8,129.4 			"/>
			<polygon class="st41" points="433.9,133.8 430.8,132 431.1,130.2 434.2,131.9 			"/>
			<polygon class="st25" points="437.3,135.8 435.2,134.6 435.5,132.7 437.6,133.9 			"/>
			<polygon class="st41" points="424.9,133.3 420.3,130.6 420.6,128.8 425.2,131.4 			"/>
			<polygon class="st41" points="431.9,137.4 426.2,134.1 426.5,132.2 432.2,135.5 			"/>
			<polygon class="st25" points="435.3,139.3 433.2,138.1 433.5,136.2 435.6,137.4 			"/>
			<polygon class="st41" points="438.5,141.2 436.4,140 436.7,138.1 438.8,139.3 			"/>
			<polygon class="st41" points="422.9,136.9 419.6,134.9 419.9,133 423.2,135 			"/>
			<polygon class="st41" points="425.4,138.3 424.2,137.6 424.5,135.7 425.7,136.4 			"/>
			<polygon class="st41" points="428.8,140.2 426.7,139 427,137.2 429.1,138.4 			"/>
			<polygon class="st41" points="431.3,146.4 418.8,139.2 419.2,137.3 431.6,144.5 			"/>
			<polygon class="st41" points="435.6,148.9 432.6,147.1 432.9,145.2 435.9,147 			"/>
			<polygon class="st41" points="421.5,145.4 418.1,143.5 418.5,141.6 421.8,143.5 			"/>
			<polygon class="st41" points="429.4,150 422.8,146.2 423.1,144.3 429.7,148.1 			"/>
			<polygon class="st41" points="432.8,151.9 430.7,150.7 431,148.9 433.1,150.1 			"/>
			<polygon class="st25" points="424.3,151.7 417.4,147.8 417.7,145.9 424.6,149.9 			"/>
			<polygon class="st41" points="430.6,155.4 425.6,152.5 425.9,150.6 430.9,153.5 			"/>
			<polygon class="st41" points="435.3,158 431.9,156.1 432.2,154.2 435.6,156.2 			"/>
			<polygon class="st41" points="419.1,153.4 416.7,152 417,150.2 419.4,151.5 			"/>
			<polygon class="st41" points="423.4,155.9 420.4,154.1 420.7,152.3 423.7,154 			"/>
			<polygon class="st25" points="429.7,159.5 424.7,156.7 425,154.8 430,157.6 			"/>
			<polygon class="st41" points="423.2,160.4 416,156.3 416.3,154.4 423.5,158.6 			"/>
			<polygon class="st41" points="431.1,165 424.5,161.2 424.8,159.3 431.4,163.2 			"/>
			<polygon class="st41" points="434.5,167 432.4,165.8 432.7,163.9 434.8,165.1 			"/>
			<polygon class="st41" points="437.8,168.9 435.7,167.7 436,165.8 438.1,167 			"/>
			<polygon class="st41" points="419.6,163.1 415.3,160.6 415.6,158.7 419.9,161.2 			"/>
			<polygon class="st25" points="443.1,139.1 449,142.5 449.3,140.7 443.4,137.2 			"/>
			<polygon class="st41" points="443.6,144.1 448.3,146.8 448.6,144.9 443.9,142.3 			"/>
			<polygon class="st41" points="444.2,149.2 447.6,151.1 447.9,149.2 444.5,147.3 			"/>
			<polygon class="st41" points="442,152.5 446.9,155.4 447.2,153.5 442.3,150.7 			"/>
			<polygon class="st41" points="442.8,157.7 446.2,159.7 446.5,157.8 443.1,155.8 			"/>
			<polygon class="st41" points="441.2,161.5 445.5,163.9 445.8,162.1 441.5,159.6 			"/>
			<polygon class="st41" points="442.4,166.9 444.7,168.2 445.1,166.3 442.7,165 			"/>
			<polygon class="st41" points="439.5,169.9 444,172.5 444.4,170.6 439.9,168 			"/>
			<polygon class="st41" points="439.1,174.3 443.3,176.8 443.6,174.9 439.4,172.4 			"/>
			<polygon class="st25" points="422.7,164.9 420.9,163.8 421.2,161.9 423,163 			"/>
			<polygon class="st41" points="428.1,168 424,165.6 424.3,163.7 428.4,166.1 			"/>
			<polygon class="st41" points="390.1,150.8 381.5,145.9 381.8,144 390.4,148.9 			"/>
			<polygon class="st41" points="394.4,153.3 391.4,151.5 391.7,149.7 394.7,151.4 			"/>
			<polygon class="st41" points="397.8,155.3 395.7,154.1 396.1,152.2 398.1,153.4 			"/>
			<polygon class="st41" points="385.5,152.8 380.8,150.2 381.1,148.3 385.8,151 			"/>
			<polygon class="st41" points="392.5,156.9 386.8,153.6 387.1,151.7 392.8,155 			"/>
			<polygon class="st41" points="395.9,158.8 393.8,157.6 394.1,155.8 396.2,157 			"/>
			<polygon class="st41" points="399.1,160.7 397,159.5 397.3,157.6 399.4,158.8 			"/>
			<polygon class="st41" points="383.5,156.4 380.1,154.4 380.4,152.6 383.8,154.5 			"/>
			<polygon class="st41" points="385.9,157.8 384.8,157.1 385.1,155.3 386.3,155.9 			"/>
			<polygon class="st41" points="389.3,159.7 387.2,158.5 387.6,156.7 389.6,157.9 			"/>
			<polygon class="st41" points="391.8,165.9 379.4,158.7 379.7,156.8 392.1,164 			"/>
			<polygon class="st41" points="396.2,168.4 393.1,166.6 393.4,164.8 396.5,166.5 			"/>
			<polygon class="st41" points="382.1,164.9 378.7,163 379,161.1 382.4,163.1 			"/>
			<polygon class="st41" points="390,169.5 383.4,165.7 383.7,163.8 390.3,167.6 			"/>
			<polygon class="st41" points="393.4,171.4 391.3,170.2 391.6,168.4 393.7,169.6 			"/>
			<polygon class="st41" points="384.9,171.2 378,167.3 378.3,165.4 385.2,169.4 			"/>
			<polygon class="st41" points="391.2,174.9 386.2,172 386.5,170.1 391.5,173 			"/>
			<polygon class="st41" points="395.8,177.6 392.5,175.6 392.8,173.7 396.1,175.7 			"/>
			<polygon class="st41" points="379.6,172.9 377.3,171.6 377.6,169.7 379.9,171 			"/>
			<polygon class="st41" points="384,175.4 380.9,173.6 381.2,171.8 384.3,173.5 			"/>
			<polygon class="st41" points="390.3,179 385.3,176.2 385.6,174.3 390.6,177.2 			"/>
			<polygon class="st41" points="383.7,179.9 376.6,175.8 376.9,174 384,178.1 			"/>
			<polygon class="st41" points="391.7,184.5 385,180.7 385.3,178.8 392,182.7 			"/>
			<polygon class="st41" points="395.1,186.5 393,185.3 393.3,183.4 395.4,184.6 			"/>
			<polygon class="st41" points="398.3,188.4 396.3,187.2 396.6,185.3 398.6,186.5 			"/>
			<polygon class="st41" points="380.2,182.6 375.9,180.1 376.2,178.2 380.5,180.7 			"/>
			<polygon class="st41" points="403.6,158.6 409.5,162 409.9,160.2 403.9,156.8 			"/>
			<polygon class="st41" points="404.2,163.6 408.8,166.3 409.2,164.5 404.5,161.8 			"/>
			<polygon class="st41" points="404.8,168.7 408.1,170.6 408.4,168.7 405.1,166.8 			"/>
			<polygon class="st41" points="402.5,172.1 407.4,174.9 407.7,173 402.9,170.2 			"/>
			<polygon class="st41" points="403.4,177.2 406.7,179.2 407,177.3 403.7,175.4 			"/>
			<polygon class="st41" points="401.8,181 406,183.4 406.3,181.6 402.1,179.1 			"/>
			<polygon class="st41" points="403,186.4 405.3,187.7 405.6,185.9 403.3,184.5 			"/>
			<polygon class="st41" points="400.1,189.4 404.6,192 404.9,190.1 400.4,187.5 			"/>
			<polygon class="st41" points="399.7,193.8 403.9,196.3 404.2,194.4 400,192 			"/>
			<polygon class="st41" points="383.3,184.4 381.5,183.3 381.8,181.5 383.6,182.5 			"/>
			<polygon class="st41" points="388.7,187.5 384.6,185.1 384.9,183.3 389,185.6 			"/>
			<polygon class="st41" points="423.1,169.8 414.6,164.9 414.9,163 423.5,167.9 			"/>
			<polygon class="st41" points="427.5,172.3 424.5,170.6 424.8,168.7 427.8,170.5 			"/>
			<polygon class="st41" points="430.9,174.3 428.8,173.1 429.1,171.2 431.2,172.4 			"/>
			<polygon class="st41" points="418.6,171.9 413.9,169.2 414.2,167.3 418.9,170 			"/>
			<polygon class="st41" points="425.6,175.9 419.9,172.6 420.2,170.7 425.9,174 			"/>
			<polygon class="st41" points="429,177.9 426.9,176.7 427.2,174.8 429.3,176 			"/>
			<polygon class="st41" points="432.2,179.7 430.1,178.5 430.4,176.6 432.5,177.9 			"/>
			<polygon class="st41" points="416.6,175.4 413.2,173.5 413.5,171.6 416.9,173.5 			"/>
			<polygon class="st41" points="419,176.8 417.9,176.2 418.2,174.3 419.3,174.9 			"/>
			<polygon class="st41" points="422.4,178.8 420.3,177.6 420.6,175.7 422.7,176.9 			"/>
			<polygon class="st41" points="424.9,184.9 412.5,177.7 412.8,175.9 425.2,183 			"/>
			<polygon class="st41" points="429.3,187.4 426.2,185.7 426.5,183.8 429.6,185.6 			"/>
			<polygon class="st41" points="415.2,184 411.8,182 412.1,180.1 415.5,182.1 			"/>
			<polygon class="st41" points="423.1,188.5 416.5,184.7 416.8,182.8 423.4,186.6 			"/>
			<polygon class="st41" points="426.4,190.5 424.4,189.3 424.7,187.4 426.8,188.6 			"/>
			<polygon class="st41" points="418,190.3 411.1,186.3 411.4,184.4 418.3,188.4 			"/>
			<polygon class="st41" points="424.3,193.9 419.3,191 419.6,189.1 424.6,192 			"/>
			<polygon class="st41" points="428.9,196.6 425.6,194.6 425.9,192.8 429.2,194.7 			"/>
			<polygon class="st41" points="412.7,191.9 410.4,190.6 410.7,188.7 413,190 			"/>
			<polygon class="st41" points="417.1,194.4 414,192.7 414.3,190.8 417.4,192.6 			"/>
			<polygon class="st41" points="423.3,198.1 418.4,195.2 418.7,193.3 423.7,196.2 			"/>
			<polygon class="st41" points="416.8,199 409.7,194.9 410,193 417.1,197.1 			"/>
			<polygon class="st41" points="424.8,203.6 418.1,199.7 418.4,197.8 425.1,201.7 			"/>
			<polygon class="st41" points="428.2,205.5 426.1,204.3 426.4,202.5 428.5,203.7 			"/>
			<polygon class="st41" points="431.4,207.4 429.3,206.2 429.6,204.3 431.7,205.5 			"/>
			<polygon class="st41" points="413.3,201.6 409,199.1 409.3,197.3 413.6,199.7 			"/>
			<polygon class="st41" points="436.7,177.7 442.6,181.1 442.9,179.2 437,175.8 			"/>
			<polygon class="st41" points="437.3,182.7 441.9,185.4 442.2,183.5 437.6,180.8 			"/>
			<polygon class="st41" points="437.9,187.7 441.2,189.6 441.5,187.8 438.2,185.8 			"/>
			<polygon class="st41" points="435.6,191.1 440.5,193.9 440.8,192 435.9,189.2 			"/>
			<polygon class="st41" points="436.5,196.3 439.8,198.2 440.1,196.3 436.8,194.4 			"/>
			<polygon class="st41" points="434.8,200 439.1,202.5 439.4,200.6 435.2,198.1 			"/>
			<polygon class="st41" points="436.1,205.4 438.4,206.8 438.7,204.9 436.4,203.5 			"/>
			<polygon class="st41" points="433.2,208.4 437.7,211 438,209.2 433.5,206.6 			"/>
			<polygon class="st41" points="432.7,212.9 437,215.3 437.3,213.4 433,211 			"/>
			<polygon class="st41" points="416.4,203.4 414.6,202.4 414.9,200.5 416.7,201.5 			"/>
			<polygon class="st41" points="421.8,206.5 417.7,204.2 418,202.3 422.1,204.6 			"/>
		</g>
		<g>
			<polygon class="st41" points="467,151.7 458.4,146.8 458.7,144.9 467.3,149.8 			"/>
			<polygon class="st41" points="471.3,154.2 468.3,152.5 468.6,150.6 471.6,152.4 			"/>
			<polygon class="st41" points="474.7,156.2 472.6,155 472.9,153.1 475,154.3 			"/>
			<polygon class="st41" points="462.4,153.7 457.7,151.1 458,149.2 462.7,151.9 			"/>
			<polygon class="st41" points="469.4,157.8 463.7,154.5 464,152.6 469.7,155.9 			"/>
			<polygon class="st41" points="472.8,159.7 470.7,158.5 471,156.7 473.1,157.9 			"/>
			<polygon class="st41" points="476,161.6 473.9,160.4 474.2,158.5 476.3,159.7 			"/>
			<polygon class="st25" points="460.4,157.3 457,155.3 457.3,153.5 460.7,155.4 			"/>
			<polygon class="st25" points="462.8,158.7 461.7,158 462,156.2 463.2,156.8 			"/>
			<polygon class="st41" points="466.2,160.7 464.1,159.4 464.5,157.6 466.5,158.8 			"/>
			<polygon class="st41" points="468.7,166.8 456.3,159.6 456.6,157.7 469,164.9 			"/>
			<polygon class="st41" points="473.1,169.3 470,167.5 470.3,165.7 473.4,167.4 			"/>
			<polygon class="st41" points="459,165.8 455.6,163.9 455.9,162 459.3,164 			"/>
			<polygon class="st41" points="466.9,170.4 460.3,166.6 460.6,164.7 467.2,168.5 			"/>
			<polygon class="st41" points="470.3,172.4 468.2,171.1 468.5,169.3 470.6,170.5 			"/>
			<polygon class="st41" points="461.8,172.2 454.9,168.2 455.2,166.3 462.1,170.3 			"/>
			<polygon class="st25" points="468.1,175.8 463.1,172.9 463.4,171 468.4,173.9 			"/>
			<polygon class="st41" points="472.7,178.5 469.4,176.5 469.7,174.7 473,176.6 			"/>
			<polygon class="st41" points="456.5,173.8 454.2,172.5 454.5,170.6 456.8,171.9 			"/>
			<polygon class="st41" points="460.9,176.3 457.8,174.6 458.1,172.7 461.2,174.5 			"/>
			<polygon class="st41" points="467.2,179.9 462.2,177.1 462.5,175.2 467.5,178.1 			"/>
			<polygon class="st41" points="460.6,180.8 453.5,176.7 453.8,174.9 460.9,179 			"/>
			<polygon class="st41" points="468.6,185.5 461.9,181.6 462.2,179.7 468.9,183.6 			"/>
			<polygon class="st25" points="472,187.4 469.9,186.2 470.2,184.3 472.3,185.5 			"/>
			<polygon class="st41" points="475.2,189.3 473.2,188.1 473.5,186.2 475.5,187.4 			"/>
			<polygon class="st41" points="457.1,183.5 452.8,181 453.1,179.1 457.4,181.6 			"/>
			<polygon class="st25" points="480.5,159.5 486.4,163 486.8,161.1 480.8,157.7 			"/>
			<polygon class="st41" points="481.1,164.6 485.7,167.2 486.1,165.4 481.4,162.7 			"/>
			<polygon class="st41" points="481.7,169.6 485,171.5 485.3,169.6 482,167.7 			"/>
			<polygon class="st41" points="479.4,173 484.3,175.8 484.6,173.9 479.8,171.1 			"/>
			<polygon class="st41" points="480.3,178.1 483.6,180.1 483.9,178.2 480.6,176.3 			"/>
			<polygon class="st41" points="478.7,181.9 482.9,184.4 483.2,182.5 479,180 			"/>
			<polygon class="st41" points="479.9,187.3 482.2,188.6 482.5,186.8 480.2,185.4 			"/>
			<polygon class="st41" points="477,190.3 481.5,192.9 481.8,191 477.3,188.4 			"/>
			<polygon class="st41" points="476.6,194.7 480.8,197.2 481.1,195.3 476.9,192.9 			"/>
			<polygon class="st41" points="460.2,185.3 458.4,184.2 458.7,182.4 460.5,183.4 			"/>
			<polygon class="st41" points="465.6,188.4 461.5,186 461.8,184.2 465.9,186.5 			"/>
			<polygon class="st41" points="500,170.7 491.5,165.8 491.8,163.9 500.4,168.9 			"/>
			<polygon class="st41" points="504.4,173.3 501.4,171.5 501.7,169.6 504.7,171.4 			"/>
			<polygon class="st25" points="507.8,175.2 505.7,174 506,172.1 508.1,173.3 			"/>
			<polygon class="st41" points="495.5,172.8 490.8,170.1 491.1,168.2 495.8,170.9 			"/>
			<polygon class="st41" points="502.5,176.8 496.8,173.5 497.1,171.6 502.8,174.9 			"/>
			<polygon class="st25" points="505.9,178.8 503.8,177.6 504.1,175.7 506.2,176.9 			"/>
			<polygon class="st41" points="509.1,180.6 507,179.4 507.3,177.6 509.4,178.8 			"/>
			<polygon class="st41" points="493.5,176.3 490.1,174.4 490.4,172.5 493.8,174.4 			"/>
			<polygon class="st41" points="495.9,177.7 494.8,177.1 495.1,175.2 496.2,175.8 			"/>
			<polygon class="st41" points="499.3,179.7 497.2,178.5 497.5,176.6 499.6,177.8 			"/>
			<polygon class="st41" points="501.8,185.8 489.4,178.6 489.7,176.8 502.1,183.9 			"/>
			<polygon class="st41" points="506.2,188.3 503.1,186.6 503.4,184.7 506.5,186.5 			"/>
			<polygon class="st41" points="492.1,184.9 488.7,182.9 489,181.1 492.4,183 			"/>
			<polygon class="st41" points="500,189.4 493.4,185.6 493.7,183.7 500.3,187.6 			"/>
			<polygon class="st41" points="503.3,191.4 501.3,190.2 501.6,188.3 503.7,189.5 			"/>
			<polygon class="st25" points="494.9,191.2 488,187.2 488.3,185.3 495.2,189.3 			"/>
			<polygon class="st41" points="501.2,194.8 496.2,191.9 496.5,190.1 501.5,192.9 			"/>
			<polygon class="st41" points="505.8,197.5 502.5,195.6 502.8,193.7 506.1,195.6 			"/>
			<polygon class="st41" points="489.6,192.8 487.3,191.5 487.6,189.6 489.9,191 			"/>
			<polygon class="st41" points="494,195.4 490.9,193.6 491.2,191.7 494.3,193.5 			"/>
			<polygon class="st25" points="500.2,199 495.3,196.1 495.6,194.2 500.6,197.1 			"/>
			<polygon class="st41" points="493.7,199.9 486.6,195.8 486.9,193.9 494,198 			"/>
			<polygon class="st41" points="501.7,204.5 495,200.6 495.3,198.8 502,202.6 			"/>
			<polygon class="st41" points="505.1,206.4 503,205.2 503.3,203.4 505.4,204.6 			"/>
			<polygon class="st41" points="508.3,208.3 506.2,207.1 506.5,205.2 508.6,206.4 			"/>
			<polygon class="st41" points="490.2,202.5 485.9,200 486.2,198.2 490.5,200.6 			"/>
			<polygon class="st25" points="513.6,178.6 519.5,182 519.8,180.1 513.9,176.7 			"/>
			<polygon class="st41" points="514.2,183.6 518.8,186.3 519.1,184.4 514.5,181.7 			"/>
			<polygon class="st41" points="514.8,188.6 518.1,190.5 518.4,188.7 515.1,186.7 			"/>
			<polygon class="st41" points="512.5,192 517.4,194.8 517.7,192.9 512.8,190.1 			"/>
			<polygon class="st41" points="513.4,197.2 516.7,199.1 517,197.2 513.7,195.3 			"/>
			<polygon class="st41" points="511.7,200.9 516,203.4 516.3,201.5 512.1,199 			"/>
			<polygon class="st41" points="513,206.3 515.3,207.7 515.6,205.8 513.3,204.4 			"/>
			<polygon class="st41" points="510.1,209.3 514.6,211.9 514.9,210.1 510.4,207.5 			"/>
			<polygon class="st41" points="509.6,213.8 513.9,216.2 514.2,214.3 509.9,211.9 			"/>
			<polygon class="st25" points="493.3,204.3 491.5,203.3 491.8,201.4 493.6,202.4 			"/>
			<polygon class="st41" points="498.7,207.4 494.6,205.1 494.9,203.2 499,205.5 			"/>
			<polygon class="st41" points="460.6,190.2 452.1,185.3 452.4,183.4 460.9,188.4 			"/>
			<polygon class="st41" points="465,192.8 461.9,191 462.2,189.1 465.3,190.9 			"/>
			<polygon class="st41" points="468.4,194.7 466.3,193.5 466.6,191.7 468.7,192.9 			"/>
			<polygon class="st41" points="456,192.3 451.4,189.6 451.7,187.7 456.3,190.4 			"/>
			<polygon class="st41" points="463,196.3 457.3,193 457.7,191.2 463.3,194.5 			"/>
			<polygon class="st41" points="466.4,198.3 464.3,197.1 464.6,195.2 466.7,196.4 			"/>
			<polygon class="st41" points="469.7,200.1 467.6,198.9 467.9,197.1 470,198.3 			"/>
			<polygon class="st41" points="454.1,195.8 450.7,193.9 451,192 454.4,193.9 			"/>
			<polygon class="st41" points="456.5,197.2 455.4,196.6 455.7,194.7 456.8,195.4 			"/>
			<polygon class="st41" points="459.9,199.2 457.8,198 458.1,196.1 460.2,197.3 			"/>
			<polygon class="st41" points="462.4,205.3 450,198.2 450.3,196.3 462.7,203.5 			"/>
			<polygon class="st41" points="466.8,207.9 463.7,206.1 464,204.2 467.1,206 			"/>
			<polygon class="st41" points="452.6,204.4 449.3,202.4 449.6,200.6 453,202.5 			"/>
			<polygon class="st41" points="460.5,208.9 453.9,205.1 454.3,203.3 460.8,207.1 			"/>
			<polygon class="st41" points="463.9,210.9 461.8,209.7 462.1,207.8 464.2,209 			"/>
			<polygon class="st41" points="455.5,210.7 448.6,206.7 448.9,204.8 455.8,208.8 			"/>
			<polygon class="st41" points="461.7,214.3 456.8,211.4 457.1,209.6 462,212.4 			"/>
			<polygon class="st41" points="466.4,217 463,215.1 463.3,213.2 466.7,215.1 			"/>
			<polygon class="st41" points="450.2,212.3 447.9,211 448.2,209.1 450.5,210.5 			"/>
			<polygon class="st41" points="454.6,214.9 451.5,213.1 451.8,211.2 454.9,213 			"/>
			<polygon class="st41" points="460.8,218.5 455.9,215.6 456.2,213.7 461.1,216.6 			"/>
			<polygon class="st41" points="454.3,219.4 447.2,215.3 447.5,213.4 454.6,217.5 			"/>
			<polygon class="st41" points="462.3,224 455.6,220.1 455.9,218.3 462.6,222.1 			"/>
			<polygon class="st41" points="465.6,226 463.6,224.7 463.9,222.9 466,224.1 			"/>
			<polygon class="st41" points="468.9,227.8 466.8,226.6 467.1,224.8 469.2,226 			"/>
			<polygon class="st41" points="450.7,222 446.5,219.6 446.8,217.7 451,220.2 			"/>
			<polygon class="st41" points="474.2,198.1 480.1,201.5 480.4,199.6 474.5,196.2 			"/>
			<polygon class="st41" points="474.8,203.1 479.4,205.8 479.7,203.9 475.1,201.2 			"/>
			<polygon class="st41" points="475.3,208.1 478.7,210.1 479,208.2 475.6,206.2 			"/>
			<polygon class="st41" points="473.1,211.5 478,214.3 478.3,212.5 473.4,209.6 			"/>
			<polygon class="st41" points="473.9,216.7 477.3,218.6 477.6,216.7 474.2,214.8 			"/>
			<polygon class="st41" points="472.3,220.4 476.6,222.9 476.9,221 472.6,218.6 			"/>
			<polygon class="st41" points="473.6,225.8 475.9,227.2 476.2,225.3 473.9,224 			"/>
			<polygon class="st41" points="470.7,228.9 475.2,231.5 475.5,229.6 471,227 			"/>
			<polygon class="st41" points="470.2,233.3 474.5,235.7 474.8,233.9 470.5,231.4 			"/>
			<polygon class="st41" points="453.8,223.8 452,222.8 452.3,220.9 454.2,221.9 			"/>
			<polygon class="st41" points="459.2,226.9 455.1,224.6 455.5,222.7 459.5,225.1 			"/>
			<polygon class="st41" points="493.7,209.3 485.2,204.3 485.5,202.5 494,207.4 			"/>
			<polygon class="st41" points="498.1,211.8 495,210 495.3,208.2 498.4,209.9 			"/>
			<polygon class="st41" points="501.5,213.8 499.4,212.6 499.7,210.7 501.8,211.9 			"/>
			<polygon class="st41" points="489.1,211.3 484.5,208.6 484.8,206.8 489.4,209.4 			"/>
			<polygon class="st41" points="496.1,215.4 490.4,212.1 490.7,210.2 496.4,213.5 			"/>
			<polygon class="st41" points="499.5,217.3 497.4,216.1 497.7,214.2 499.8,215.4 			"/>
			<polygon class="st41" points="502.7,219.2 500.6,218 501,216.1 503,217.3 			"/>
			<polygon class="st41" points="487.1,214.9 483.8,212.9 484.1,211 487.4,213 			"/>
			<polygon class="st41" points="489.6,216.3 488.4,215.6 488.7,213.7 489.9,214.4 			"/>
			<polygon class="st41" points="493,218.2 490.9,217 491.2,215.1 493.3,216.4 			"/>
			<polygon class="st41" points="495.5,224.4 483.1,217.2 483.4,215.3 495.8,222.5 			"/>
			<polygon class="st41" points="499.9,226.9 496.8,225.1 497.1,223.2 500.2,225 			"/>
			<polygon class="st41" points="485.7,223.4 482.4,221.5 482.7,219.6 486,221.5 			"/>
			<polygon class="st41" points="493.6,228 487,224.2 487.3,222.3 493.9,226.1 			"/>
			<polygon class="st41" points="497,229.9 494.9,228.7 495.2,226.8 497.3,228.1 			"/>
			<polygon class="st41" points="488.5,229.7 481.7,225.7 482,223.9 488.8,227.8 			"/>
			<polygon class="st41" points="494.8,233.3 489.8,230.5 490.2,228.6 495.1,231.5 			"/>
			<polygon class="st41" points="499.5,236 496.1,234.1 496.4,232.2 499.8,234.2 			"/>
			<polygon class="st41" points="483.3,231.4 481,230 481.3,228.2 483.6,229.5 			"/>
			<polygon class="st41" points="487.7,233.9 484.6,232.1 484.9,230.2 488,232 			"/>
			<polygon class="st41" points="493.9,237.5 489,234.6 489.3,232.8 494.2,235.6 			"/>
			<polygon class="st41" points="487.4,238.4 480.3,234.3 480.6,232.4 487.7,236.5 			"/>
			<polygon class="st41" points="495.3,243 488.7,239.2 489,237.3 495.6,241.1 			"/>
			<polygon class="st41" points="498.7,245 496.6,243.8 497,241.9 499,243.1 			"/>
			<polygon class="st41" points="502,246.9 499.9,245.7 500.2,243.8 502.3,245 			"/>
			<polygon class="st41" points="483.8,241.1 479.5,238.6 479.9,236.7 484.1,239.2 			"/>
			<polygon class="st41" points="507.3,217.1 513.2,220.5 513.5,218.7 507.6,215.2 			"/>
			<polygon class="st41" points="507.8,222.1 512.5,224.8 512.8,222.9 508.1,220.2 			"/>
			<polygon class="st41" points="508.4,227.1 511.8,229.1 512.1,227.2 508.7,225.3 			"/>
			<polygon class="st41" points="506.2,230.5 511.1,233.4 511.4,231.5 506.5,228.7 			"/>
			<polygon class="st41" points="507,235.7 510.4,237.6 510.7,235.8 507.3,233.8 			"/>
			<polygon class="st41" points="505.4,239.5 509.7,241.9 510,240.1 505.7,237.6 			"/>
			<polygon class="st41" points="506.6,244.9 509,246.2 509.3,244.3 507,243 			"/>
			<polygon class="st41" points="503.8,247.9 508.3,250.5 508.6,248.6 504.1,246 			"/>
			<polygon class="st41" points="503.3,252.3 507.6,254.8 507.9,252.9 503.6,250.4 			"/>
			<polygon class="st41" points="486.9,242.9 485.1,241.8 485.4,239.9 487.2,241 			"/>
			<polygon class="st41" points="492.3,246 488.2,243.6 488.5,241.7 492.6,244.1 			"/>
		</g>
	</g>
	<g>
		<g>
			<path class="st25" d="M419.9,286.6c-10.7,0-20.7-2.4-28.2-6.7l0,0c-7.7-4.4-11.9-10.4-11.9-16.7c0-6.3,4.2-12.3,11.9-16.7
				c15.6-9,40.9-9,56.5,0c7.7,4.4,11.9,10.4,11.9,16.7c0,6.3-4.2,12.3-11.9,16.7C440.6,284.2,430.6,286.6,419.9,286.6z M419.9,240.2
				c-10.1,0-20.3,2.2-28,6.7c-7.5,4.3-11.7,10.1-11.7,16.3s4.1,11.9,11.7,16.3l0,0c7.5,4.3,17.4,6.7,28,6.7c10.6,0,20.5-2.4,28-6.7
				c7.5-4.3,11.7-10.1,11.7-16.3c0-6.2-4.1-11.9-11.7-16.3C440.2,242.4,430.1,240.2,419.9,240.2z"/>
			<g class="st4">
				<ellipse class="st9" cx="419.9" cy="263.2" rx="29.7" ry="17.1"/>
			</g>
			<g>
				<g>
					
						<linearGradient id="SVGID_27_" gradientUnits="userSpaceOnUse" x1="-140.945" y1="250.2568" x2="-68.319" y2="250.2568" gradientTransform="matrix(-1 0 0 1 315.2906 0)">
						<stop  offset="0" style="stop-color:#5761D7"/>
						<stop  offset="0.1779" style="stop-color:#5C66D9"/>
						<stop  offset="0.3876" style="stop-color:#6A73DF"/>
						<stop  offset="0.6134" style="stop-color:#8289E8"/>
						<stop  offset="0.849" style="stop-color:#A3A7F5"/>
						<stop  offset="1" style="stop-color:#BCBEFF"/>
					</linearGradient>
					<path class="st42" d="M383.6,250.3v-8.1h2.8c1.8-2.5,4.4-4.8,7.9-6.8c14.2-8.2,37.2-8.2,51.4,0c3.5,2,6.1,4.3,7.9,6.8h2.8v8.1
						l0,0c0,5.4-3.5,10.7-10.6,14.8c-14.2,8.2-37.2,8.2-51.4,0C387.2,261,383.6,255.6,383.6,250.3z"/>
					<ellipse class="st27" cx="419.9" cy="242.2" rx="36.3" ry="21"/>
				</g>
				<g>
					<path class="st9" d="M386.4,241.9v-11h2.6c1.6-2.3,4-4.4,7.3-6.3c13.1-7.6,34.3-7.6,47.4,0c3.2,1.8,5.6,4,7.3,6.3h2.6v11l0,0
						c0,5-3.3,9.9-9.8,13.7c-13.1,7.6-34.3,7.6-47.4,0C389.7,251.8,386.4,246.8,386.4,241.9z"/>
					<g class="st10">
						<path class="st11" d="M386.4,239.2v-11h2.6c1.6-2.3,4-4.4,7.3-6.3c13.1-7.6,34.3-7.6,47.4,0c3.2,1.8,5.6,4,7.3,6.3h2.6v11l0,0
							c0,5-3.3,9.9-9.8,13.7c-13.1,7.6-34.3,7.6-47.4,0C389.7,249.2,386.4,244.2,386.4,239.2z"/>
					</g>
					<ellipse class="st27" cx="419.9" cy="230.9" rx="33.5" ry="19.4"/>
				</g>
				<g>
					<g class="st10">
						<path class="st28" d="M396.8,245.1c5.8,7.3,13.4,11.3,19.8,13.4c-7.5-0.4-14.7-2.3-20.4-5.6c-6.5-3.8-9.8-8.7-9.8-13.7V236
							C389.8,237.9,393.4,240.8,396.8,245.1z"/>
					</g>
					
						<linearGradient id="SVGID_28_" gradientUnits="userSpaceOnUse" x1="-140.945" y1="230.7195" x2="-68.319" y2="230.7195" gradientTransform="matrix(-1 0 0 1 315.2906 0)">
						<stop  offset="0" style="stop-color:#5761D7"/>
						<stop  offset="0.1779" style="stop-color:#5C66D9"/>
						<stop  offset="0.3876" style="stop-color:#6A73DF"/>
						<stop  offset="0.6134" style="stop-color:#8289E8"/>
						<stop  offset="0.849" style="stop-color:#A3A7F5"/>
						<stop  offset="1" style="stop-color:#BCBEFF"/>
					</linearGradient>
					<path class="st43" d="M383.6,230.7v-8.1h2.8c1.8-2.5,4.4-4.8,7.9-6.8c14.2-8.2,37.2-8.2,51.4,0c3.5,2,6.1,4.3,7.9,6.8h2.8v8.1
						l0,0c0,5.4-3.5,10.7-10.6,14.8c-14.2,8.2-37.2,8.2-51.4,0C387.2,241.5,383.6,236.1,383.6,230.7z"/>
					<ellipse class="st27" cx="419.9" cy="222.7" rx="36.3" ry="21"/>
				</g>
				<g>
					<path class="st9" d="M386.4,221.9v-11h2.6c1.6-2.3,4-4.4,7.3-6.3c13.1-7.6,34.3-7.6,47.4,0c3.2,1.8,5.6,4,7.3,6.3h2.6v11l0,0
						c0,5-3.3,9.9-9.8,13.7c-13.1,7.6-34.3,7.6-47.4,0C389.7,231.9,386.4,226.9,386.4,221.9z"/>
					<g class="st10">
						<path class="st11" d="M386.4,219.4v-11h2.6c1.6-2.3,4-4.4,7.3-6.3c13.1-7.6,34.3-7.6,47.4,0c3.2,1.8,5.6,4,7.3,6.3h2.6v11l0,0
							c0,5-3.3,9.9-9.8,13.7c-13.1,7.6-34.3,7.6-47.4,0C389.7,229.3,386.4,224.4,386.4,219.4z"/>
					</g>
					<ellipse class="st27" cx="419.9" cy="211" rx="33.5" ry="19.4"/>
				</g>
				<g>
					<g class="st10">
						<path class="st28" d="M396.8,224.2c7.2,9.1,17.2,13,24.2,14.6c-9,0.2-18-1.7-24.8-5.6c-6.5-3.8-9.8-8.7-9.8-13.7V215
							C389.8,216.9,393.4,219.8,396.8,224.2z"/>
					</g>
					
						<linearGradient id="SVGID_29_" gradientUnits="userSpaceOnUse" x1="-140.945" y1="210.7766" x2="-68.319" y2="210.7766" gradientTransform="matrix(-1 0 0 1 315.2906 0)">
						<stop  offset="0" style="stop-color:#5761D7"/>
						<stop  offset="0.1779" style="stop-color:#5C66D9"/>
						<stop  offset="0.3876" style="stop-color:#6A73DF"/>
						<stop  offset="0.6134" style="stop-color:#8289E8"/>
						<stop  offset="0.849" style="stop-color:#A3A7F5"/>
						<stop  offset="1" style="stop-color:#BCBEFF"/>
					</linearGradient>
					<path class="st44" d="M383.6,210.8v-8.1h2.8c1.8-2.5,4.4-4.8,7.9-6.8c14.2-8.2,37.2-8.2,51.4,0c3.5,2,6.1,4.3,7.9,6.8h2.8v8.1
						l0,0c0,5.4-3.5,10.7-10.6,14.8c-14.2,8.2-37.2,8.2-51.4,0C387.2,221.5,383.6,216.1,383.6,210.8z"/>
					<ellipse class="st27" cx="419.9" cy="202.7" rx="36.3" ry="21"/>
				</g>
				<g>
					<path class="st9" d="M386.4,202v-11h2.6c1.6-2.3,4-4.4,7.3-6.3c13.1-7.6,34.3-7.6,47.4,0c3.2,1.8,5.6,4,7.3,6.3h2.6v11l0,0
						c0,5-3.3,9.9-9.8,13.7c-13.1,7.6-34.3,7.6-47.4,0C389.7,211.9,386.4,207,386.4,202z"/>
					<g class="st10">
						<path class="st11" d="M386.4,198.9v-11h2.6c1.6-2.3,4-4.4,7.3-6.3c13.1-7.6,34.3-7.6,47.4,0c3.2,1.8,5.6,4,7.3,6.3h2.6v11l0,0
							c0,5-3.3,9.9-9.8,13.7c-13.1,7.6-34.3,7.6-47.4,0C389.7,208.8,386.4,203.9,386.4,198.9z"/>
					</g>
					<ellipse class="st27" cx="419.9" cy="191" rx="33.5" ry="19.4"/>
				</g>
				<g>
					
						<linearGradient id="SVGID_30_" gradientUnits="userSpaceOnUse" x1="-140.945" y1="190.8336" x2="-68.319" y2="190.8336" gradientTransform="matrix(-1 0 0 1 315.2906 0)">
						<stop  offset="0" style="stop-color:#5761D7"/>
						<stop  offset="0.1779" style="stop-color:#5C66D9"/>
						<stop  offset="0.3876" style="stop-color:#6A73DF"/>
						<stop  offset="0.6134" style="stop-color:#8289E8"/>
						<stop  offset="0.849" style="stop-color:#A3A7F5"/>
						<stop  offset="1" style="stop-color:#BCBEFF"/>
					</linearGradient>
					<path class="st45" d="M383.6,190.8v-8.1h2.8c1.8-2.5,4.4-4.8,7.9-6.8c14.2-8.2,37.2-8.2,51.4,0c3.5,2,6.1,4.3,7.9,6.8h2.8v8.1
						l0,0c0,5.4-3.5,10.7-10.6,14.8c-14.2,8.2-37.2,8.2-51.4,0C387.2,201.6,383.6,196.2,383.6,190.8z"/>
					<ellipse class="st27" cx="419.9" cy="182.8" rx="36.3" ry="21"/>
					<ellipse class="st27" cx="419.9" cy="182.8" rx="36.3" ry="21"/>
				</g>
				<g>
					<g class="st10">
						<path class="st28" d="M396.8,203.2c7.9,10,19.2,13.7,26.2,15c-9.6,0.5-19.5-1.3-26.8-5.6c-6.5-3.8-9.8-8.7-9.8-13.7V194
							C389.8,195.9,393.4,198.8,396.8,203.2z"/>
					</g>
					
						<linearGradient id="SVGID_31_" gradientUnits="userSpaceOnUse" x1="-140.945" y1="190.8336" x2="-68.319" y2="190.8336" gradientTransform="matrix(-1 0 0 1 315.2906 0)">
						<stop  offset="0" style="stop-color:#5761D7"/>
						<stop  offset="0.1779" style="stop-color:#5C66D9"/>
						<stop  offset="0.3876" style="stop-color:#6A73DF"/>
						<stop  offset="0.6134" style="stop-color:#8289E8"/>
						<stop  offset="0.849" style="stop-color:#A3A7F5"/>
						<stop  offset="1" style="stop-color:#BCBEFF"/>
					</linearGradient>
					<path class="st46" d="M383.6,190.8v-8.1h2.8c1.8-2.5,4.4-4.8,7.9-6.8c14.2-8.2,37.2-8.2,51.4,0c3.5,2,6.1,4.3,7.9,6.8h2.8v8.1
						l0,0c0,5.4-3.5,10.7-10.6,14.8c-14.2,8.2-37.2,8.2-51.4,0C387.2,201.6,383.6,196.2,383.6,190.8z"/>
					<ellipse class="st27" cx="419.9" cy="182.8" rx="36.3" ry="21"/>
					<ellipse class="st27" cx="419.9" cy="182.8" rx="36.3" ry="21"/>
					<path class="st19" d="M394,197c14.2,8.2,37.2,8.2,51.4,0c8.7-5,12-11.9,10.1-18.4c2.4,6.7-0.9,13.9-9.9,19.1
						c-14.2,8.2-37.2,8.2-51.4,0c-5.5-3.2-8.9-7.1-10.1-11.2C385.5,190.3,388.8,194,394,197z"/>
					<path class="st19" d="M394,216.9c14.2,8.2,37.2,8.2,51.4,0c8.7-5,12-11.9,10.1-18.4c2.4,6.7-0.9,13.9-9.9,19.1
						c-14.2,8.2-37.2,8.2-51.4,0c-5.5-3.2-8.9-7.1-10.1-11.2C385.5,210.2,388.8,213.9,394,216.9z"/>
					<path class="st19" d="M394,236.9c14.2,8.2,37.2,8.2,51.4,0c8.7-5,12-11.9,10.1-18.4c2.4,6.7-0.9,13.9-9.9,19.1
						c-14.2,8.2-37.2,8.2-51.4,0c-5.5-3.2-8.9-7.1-10.1-11.2C385.5,230.1,388.8,233.8,394,236.9z"/>
					<path class="st19" d="M394,256.8c14.2,8.2,37.2,8.2,51.4,0c8.7-5,12-11.9,10.1-18.4c2.4,6.7-0.9,13.9-9.9,19.1
						c-14.2,8.2-37.2,8.2-51.4,0c-5.5-3.2-8.9-7.1-10.1-11.2C385.5,250.1,388.8,253.8,394,256.8z"/>
				</g>
				<defs>
					<filter id="Adobe_OpacityMaskFilter_2_" filterUnits="userSpaceOnUse" x="419.9" y="172.1" width="36.3" height="19.4">
						<feFlood  style="flood-color:white;flood-opacity:1" result="back"/>
						<feBlend  in="SourceGraphic" in2="back" mode="normal"/>
					</filter>
				</defs>
				<mask maskUnits="userSpaceOnUse" x="419.9" y="172.1" width="36.3" height="19.4" id="SVGID_32_">
					<g class="st47">
						<defs>
							<filter id="Adobe_OpacityMaskFilter_3_" filterUnits="userSpaceOnUse" x="419.9" y="172.1" width="36.3" height="19.4">
								<feFlood  style="flood-color:white;flood-opacity:1" result="back"/>
								<feBlend  in="SourceGraphic" in2="back" mode="normal"/>
							</filter>
						</defs>
						<mask maskUnits="userSpaceOnUse" x="419.9" y="172.1" width="36.3" height="19.4" id="SVGID_32_">
							<g class="st48">
							</g>
						</mask>
						
							<linearGradient id="SVGID_33_" gradientUnits="userSpaceOnUse" x1="-140.9441" y1="181.8586" x2="-104.6319" y2="181.8586" gradientTransform="matrix(-1 0 0 1 315.2906 0)">
							<stop  offset="0" style="stop-color:#000000"/>
							<stop  offset="4.693538e-02" style="stop-color:#2F2F2F"/>
							<stop  offset="9.814870e-02" style="stop-color:#5A5A5A"/>
							<stop  offset="0.155" style="stop-color:#828282"/>
							<stop  offset="0.2161" style="stop-color:#A4A4A4"/>
							<stop  offset="0.2828" style="stop-color:#C0C0C0"/>
							<stop  offset="0.3571" style="stop-color:#D7D7D7"/>
							<stop  offset="0.442" style="stop-color:#E9E9E9"/>
							<stop  offset="0.5443" style="stop-color:#F6F6F6"/>
							<stop  offset="0.6813" style="stop-color:#FDFDFD"/>
							<stop  offset="1" style="stop-color:#FFFFFF"/>
						</linearGradient>
						<path class="st49" d="M452.9,191.6h-33v-19.4h31.3C457.3,178.1,457.8,185.4,452.9,191.6z"/>
					</g>
				</mask>
				
					<linearGradient id="SVGID_34_" gradientUnits="userSpaceOnUse" x1="-140.9441" y1="181.8586" x2="-104.6319" y2="181.8586" gradientTransform="matrix(-1 0 0 1 315.2906 0)">
					<stop  offset="0" style="stop-color:#E9E9FD"/>
					<stop  offset="3.739363e-02" style="stop-color:#D3D5F7"/>
					<stop  offset="0.1056" style="stop-color:#B2B6EF"/>
					<stop  offset="0.1817" style="stop-color:#969BE7"/>
					<stop  offset="0.2663" style="stop-color:#7F86E1"/>
					<stop  offset="0.3632" style="stop-color:#6D75DD"/>
					<stop  offset="0.4798" style="stop-color:#606AD9"/>
					<stop  offset="0.6363" style="stop-color:#5963D8"/>
					<stop  offset="1" style="stop-color:#5761D7"/>
				</linearGradient>
				<path class="st50" d="M452.9,191.6h-33v-19.4h31.3C457.3,178.1,457.8,185.4,452.9,191.6z"/>
				<g>
					
						<linearGradient id="SVGID_35_" gradientUnits="userSpaceOnUse" x1="-123.276" y1="180.8168" x2="-85.9879" y2="180.8168" gradientTransform="matrix(-1 0 0 1 315.2906 0)">
						<stop  offset="0" style="stop-color:#5761D7"/>
						<stop  offset="0.1779" style="stop-color:#5C66D9"/>
						<stop  offset="0.3876" style="stop-color:#6A73DF"/>
						<stop  offset="0.6134" style="stop-color:#8289E8"/>
						<stop  offset="0.849" style="stop-color:#A3A7F5"/>
						<stop  offset="1" style="stop-color:#BCBEFF"/>
					</linearGradient>
					<path class="st51" d="M401.3,180.8v-4.1h1.4c0.9-1.3,2.3-2.4,4-3.5c7.3-4.2,19.1-4.2,26.4,0c1.8,1,3.1,2.2,4,3.5h1.4v4.1l0,0
						c0,2.8-1.8,5.5-5.5,7.6c-7.3,4.2-19.1,4.2-26.4,0C403.1,186.3,401.3,183.6,401.3,180.8z"/>
					<ellipse class="st27" cx="419.9" cy="176.7" rx="18.6" ry="10.8"/>
					
						<linearGradient id="SVGID_36_" gradientUnits="userSpaceOnUse" x1="-123.276" y1="176.6803" x2="-85.9879" y2="176.6803" gradientTransform="matrix(-1 0 0 1 315.2906 0)">
						<stop  offset="0" style="stop-color:#C0BFF6"/>
						<stop  offset="0.2938" style="stop-color:#C5C4F7"/>
						<stop  offset="0.6399" style="stop-color:#D3D2F9"/>
						<stop  offset="1" style="stop-color:#E9E9FD"/>
					</linearGradient>
					<ellipse class="st52" cx="419.9" cy="176.7" rx="18.6" ry="10.8"/>
					<path class="st9" d="M411,181.8c4.9,2.8,12.9,2.8,17.8,0c1.5-0.9,2.6-1.9,3.2-3.1c1.3-2.5-1.9-4.3-5.3-6.2
						c-4.9-2.8-8.4-3.5-13.3-0.7c-3.4,1.9-6.8,4.4-5.5,6.9C408.5,179.9,409.5,180.9,411,181.8z"/>
					
						<linearGradient id="SVGID_37_" gradientUnits="userSpaceOnUse" x1="-117.185" y1="174.0906" x2="-92.0789" y2="174.0906" gradientTransform="matrix(-1 0 0 1 315.2906 0)">
						<stop  offset="0" style="stop-color:#BCBEFF"/>
						<stop  offset="0.151" style="stop-color:#A3A7F5"/>
						<stop  offset="0.3866" style="stop-color:#8289E8"/>
						<stop  offset="0.6124" style="stop-color:#6A73DF"/>
						<stop  offset="0.8221" style="stop-color:#5C66D9"/>
						<stop  offset="1" style="stop-color:#5761D7"/>
					</linearGradient>
					<path class="st53" d="M428.8,175.7c-4.9-2.8-12.9-2.8-17.8,0c-1.5,0.9-2.6,1.9-3.2,3.1c-1.3-2.5-0.2-5.2,3.2-7.2
						c4.9-2.8,12.9-2.8,17.8,0c3.4,1.9,4.4,4.7,3.2,7.2C431.4,177.6,430.3,176.6,428.8,175.7z"/>
				</g>
			</g>
			<g>
				<g class="st10">
					<path class="st40" d="M399.5,213.4c2.4,1,4.3,0.7,4.1-0.6c-0.2-1.3-2.3-3.1-4.8-4.1c-2.4-1-4.3-0.7-4.1,0.6
						C394.9,210.6,397,212.4,399.5,213.4z"/>
				</g>
				<g class="st10">
					<path class="st40" d="M399.5,233.6c2.4,1,4.3,0.7,4.1-0.6c-0.2-1.3-2.3-3.1-4.8-4.1c-2.4-1-4.3-0.7-4.1,0.6
						C394.9,230.8,397,232.6,399.5,233.6z"/>
				</g>
				<g class="st10">
					<path class="st40" d="M399.3,254c2.4,1,4.3,0.7,4.1-0.6c-0.2-1.3-2.3-3.1-4.8-4.1c-2.4-1-4.3-0.7-4.1,0.6
						C394.8,251.2,396.9,253,399.3,254z"/>
				</g>
				<g class="st10">
					<path class="st40" d="M392.5,208.3c0.6,0.4,1.3,0.4,1.6,0c0.3-0.4,0.1-1.1-0.5-1.5c-0.6-0.4-1.3-0.4-1.6,0
						C391.7,207.2,391.9,207.9,392.5,208.3z"/>
				</g>
				<g class="st10">
					<path class="st40" d="M392.5,228.6c0.6,0.4,1.3,0.4,1.6,0c0.3-0.4,0.1-1.1-0.5-1.5c-0.6-0.4-1.3-0.4-1.6,0
						C391.7,227.5,391.9,228.2,392.5,228.6z"/>
				</g>
				<g class="st10">
					<path class="st40" d="M392.5,248.9c0.6,0.4,1.3,0.4,1.6,0c0.3-0.4,0.1-1.1-0.5-1.5c-0.6-0.4-1.3-0.4-1.6,0
						C391.7,247.8,391.9,248.5,392.5,248.9z"/>
				</g>
			</g>
		</g>
		<g>
			<path class="st25" d="M397.9,306.3c-0.6,0-1.2-0.1-1.6-0.4l0,0l-79.4-45.9c-0.5-0.3-0.7-0.6-0.7-1.1c0-0.5,0.4-1,1-1.3l16.5-9.5
				c1.1-0.6,2.7-0.7,3.7-0.1l79.4,45.9c0.5,0.3,0.7,0.6,0.7,1.1c0,0.5-0.4,1-1,1.3l-16.5,9.5C399.3,306.1,398.6,306.3,397.9,306.3z
				 M396.5,305.5c0.8,0.5,2.3,0.4,3.2-0.1l16.5-9.5c0.5-0.3,0.7-0.6,0.7-0.9c0-0.3-0.3-0.5-0.5-0.7L337,248.4
				c-0.8-0.5-2.3-0.4-3.2,0.1l-16.5,9.5c-0.5,0.3-0.7,0.6-0.7,0.9c0,0.3,0.3,0.5,0.5,0.7L396.5,305.5z"/>
			<g>
				
					<linearGradient id="SVGID_38_" gradientUnits="userSpaceOnUse" x1="-280.0621" y1="-233.7025" x2="-184.8053" y2="-233.7025" gradientTransform="matrix(-0.866 -0.5 0 1.1547 175.5006 399.0382)">
					<stop  offset="0" style="stop-color:#5761D7"/>
					<stop  offset="0.1779" style="stop-color:#5C66D9"/>
					<stop  offset="0.3876" style="stop-color:#6A73DF"/>
					<stop  offset="0.6134" style="stop-color:#8289E8"/>
					<stop  offset="0.849" style="stop-color:#A3A7F5"/>
					<stop  offset="1" style="stop-color:#BCBEFF"/>
				</linearGradient>
				<path class="st54" d="M348.8,221.1c2.1,1.2,4.1,2.9,5.8,4.9c2.4-7.8,9.9-10.3,18.7-5.2c7.3,4.2,13.6,12.5,17,21.2
					c1.1,0,2.4,0.4,3.7,1.2c4.8,2.7,8.6,9.4,8.6,14.9c0,0.1,0,0.2,0,0.3c1.4,0.1,2.9,0.6,4.4,1.5c6.1,3.5,11,12,11,19.1
					c0,7-4.9,9.9-11,6.4l-58.2-33.6c-7.3-4.2-13.3-14.5-13.3-23S341.5,216.9,348.8,221.1z"/>
				
					<radialGradient id="SVGID_39_" cx="-83.357" cy="244.4515" r="39.3504" fx="-120.4661" fy="231.3606" gradientTransform="matrix(-1 0 0 1 315.2906 0)" gradientUnits="userSpaceOnUse">
					<stop  offset="0" style="stop-color:#2B237C"/>
					<stop  offset="1" style="stop-color:#180D5B"/>
				</radialGradient>
				<path class="st55" d="M348.8,221.1c1.2,0.7,2.4,1.6,3.5,2.6l6.5-3.8l0,0c3.6-2.5,8.7-2.4,14.5,0.9c7.3,4.2,13.6,12.5,17,21.2
					c1.1,0,2.4,0.4,3.7,1.2c4.8,2.7,8.6,9.4,8.6,14.9c0,0.1,0,0.2,0,0.3c1.4,0.1,2.9,0.6,4.4,1.5c6.1,3.5,11,12,11,19.1
					c0,3.5-1.2,5.9-3.2,7.1l0,0l-0.1,0c0,0,0,0,0,0l-15.9,9.3l-3.5-16.7l-46.6-26.9c-7.3-4.2-13.3-14.5-13.3-23
					S341.5,216.9,348.8,221.1z"/>
				
					<linearGradient id="SVGID_40_" gradientUnits="userSpaceOnUse" x1="-102.7438" y1="256.8117" x2="-7.9229" y2="256.8117" gradientTransform="matrix(-1 0 0 1 315.2906 0)">
					<stop  offset="0" style="stop-color:#5761D7"/>
					<stop  offset="0.1779" style="stop-color:#5C66D9"/>
					<stop  offset="0.3876" style="stop-color:#6A73DF"/>
					<stop  offset="0.6134" style="stop-color:#8289E8"/>
					<stop  offset="0.849" style="stop-color:#A3A7F5"/>
					<stop  offset="1" style="stop-color:#BCBEFF"/>
				</linearGradient>
				<path class="st56" d="M323.2,229.6l16.1-9.4l0,0c2.4-1.4,5.8-1.3,9.5,0.9c1.2,0.7,2.4,1.6,3.5,2.6l6.5-3.8l0,0
					c3.6-2.5,8.7-2.4,14.5,0.9c7.3,4.2,13.6,12.5,17,21.2c1.1,0,2.4,0.4,3.7,1.2c4.8,2.7,8.6,9.4,8.6,14.9c0,0.1,0,0.2,0,0.3
					c1.4,0.1,2.9,0.6,4.4,1.5c6.1,3.5,11,12,11,19.1c0,3.5-1.2,5.9-3.2,7.1l0,0l-0.1,0c0,0,0,0,0,0l-15.9,9.3l-3.5-16.7l-46.6-26.9
					c-5.9-3.4-11-10.9-12.7-18.1L323.2,229.6z"/>
				
					<linearGradient id="SVGID_41_" gradientUnits="userSpaceOnUse" x1="-261.5975" y1="-217.6691" x2="-166.3407" y2="-217.6691" gradientTransform="matrix(-0.866 -0.5 0 1.1547 175.5006 399.0382)">
					<stop  offset="0" style="stop-color:#C0BFF6"/>
					<stop  offset="0.2938" style="stop-color:#C5C4F7"/>
					<stop  offset="0.6399" style="stop-color:#D3D2F9"/>
					<stop  offset="1" style="stop-color:#E9E9FD"/>
				</linearGradient>
				<path class="st57" d="M332.8,230.4c2.1,1.2,4.1,2.9,5.8,4.9c2.4-7.8,9.9-10.3,18.7-5.2c7.3,4.2,13.6,12.5,17,21.2
					c1.1,0,2.4,0.4,3.7,1.2c4.8,2.7,8.6,9.4,8.6,14.9c0,0.1,0,0.2,0,0.3c1.4,0.1,2.9,0.6,4.4,1.5c6.1,3.5,11,12,11,19.1
					c0,7-4.9,9.9-11,6.4l-58.2-33.6c-7.3-4.2-13.3-14.5-13.3-23C319.6,229.6,325.5,226.2,332.8,230.4z"/>
				<g>
					<path class="st19" d="M338.7,235.3c-1.8-2-3.7-3.7-5.8-4.9c-4.5-2.6-8.5-2.3-10.9,0.2c2.4-3,6.5-3.4,11.2-0.7
						c2,1.2,3.9,2.8,5.7,4.7C338.8,234.9,338.7,235.1,338.7,235.3z"/>
					<path class="st19" d="M402,288.3c0-7-4.9-15.6-11-19.1c-1.6-0.9-3.1-1.4-4.4-1.5c0-0.1,0-0.2,0-0.3c0-5.5-3.9-12.2-8.6-14.9
						c-1.3-0.8-2.6-1.1-3.7-1.2c-3.4-8.8-9.7-17-17-21.2c-6.7-3.9-12.6-3.4-16.1,0.5c3.5-4.3,9.5-4.9,16.5-0.9
						c7.3,4.2,13.6,12.5,17,21.2c1.1,0,2.4,0.4,3.7,1.2c4.8,2.7,8.6,9.4,8.6,14.9c0,0.1,0,0.2,0,0.3c1.4,0.1,2.9,0.6,4.4,1.5
						c6.1,3.5,11,12,11,19.1c0,2.8-0.8,4.9-2.1,6.2C401.4,292.8,402,290.8,402,288.3z"/>
				</g>
			</g>
		</g>
	</g>
</g>
</svg>
